<svg xmlns="http://www.w3.org/2000/svg" xmlns:xlink="http://www.w3.org/1999/xlink" width="940" zoomAndPan="magnify" viewBox="0 0 705 591.000005" height="788" preserveAspectRatio="xMidYMid meet" version="1.0"><defs><clipPath id="de85067062"><path d="M 1 43 L 704 43 L 704 546.804688 L 1 546.804688 Z M 1 43 " clip-rule="nonzero"/></clipPath></defs><g clip-path="url(#de85067062)"><path fill="#fcd5d2" d="M 700.332031 52.03125 C 679.085938 59.902344 657.769531 67.675781 635.824219 73.402344 C 613.722656 79.167969 591.105469 82.648438 568.371094 84.710938 C 523.117188 88.792969 477.472656 87.828125 432.089844 87.6875 C 385.476562 87.546875 338.859375 87.082031 292.289062 85.355469 C 245.769531 83.628906 199.28125 80.671875 153.019531 75.519531 C 108.800781 70.609375 63.167969 65.445312 21.15625 50.039062 C 15.9375 48.128906 10.785156 46.023438 5.722656 43.75 C 3.910156 42.9375 2.226562 43.933594 2.003906 45.882812 C 1.230469 52.632812 3.070312 59.339844 7.195312 64.742188 C 9.089844 67.242188 13.382812 64.785156 11.460938 62.257812 C 8.542969 58.441406 7.011719 54.191406 6.816406 49.601562 C 46.332031 66.582031 89.5625 72.644531 131.941406 77.976562 C 178.585938 83.855469 225.480469 87.378906 272.433594 89.480469 C 319.453125 91.601562 366.519531 92.300781 413.582031 92.542969 C 459.820312 92.78125 506.277344 93.804688 552.445312 90.855469 C 574.996094 89.410156 597.503906 86.832031 619.644531 82.242188 C 642.070312 77.582031 663.859375 70.523438 685.371094 62.75 C 689.5 61.261719 693.59375 59.746094 697.707031 58.234375 C 696.976562 61.878906 696.246094 65.527344 695.503906 69.175781 C 656.941406 86.367188 615.167969 94.84375 573.296875 98.855469 C 529.742188 103.039062 485.707031 103.164062 441.984375 103.304688 C 351.054688 103.585938 260.113281 99.25 169.660156 89.75 C 119.1875 84.445312 68.824219 77.21875 19.585938 64.742188 C 18.210938 64.390625 16.246094 65.472656 16.457031 67.128906 C 17.703125 76.585938 22.796875 84.289062 29.773438 90.058594 C 29.757812 90.296875 29.785156 90.546875 29.871094 90.789062 C 32.003906 96.554688 34.472656 102.25 37.351562 107.683594 C 38.738281 110.292969 40.691406 111.847656 43.761719 111.78125 C 46.960938 111.695312 50.175781 111.441406 53.375 111.273438 C 53.667969 111.261719 53.992188 111.175781 54.300781 111.050781 C 54.496094 111.539062 54.707031 112.019531 54.90625 112.507812 C 55.421875 113.785156 55.957031 115.0625 56.476562 116.339844 C 56.96875 117.53125 57.375 118.835938 58.105469 119.890625 C 59.703125 122.191406 62.230469 122.445312 64.824219 122.515625 C 67.6875 122.585938 70.550781 122.667969 73.398438 122.738281 C 74.789062 122.78125 76.175781 122.808594 77.566406 122.851562 C 78.140625 122.863281 78.746094 122.835938 79.335938 122.90625 C 79.460938 122.921875 79.613281 122.964844 79.742188 122.964844 C 79.785156 122.964844 79.785156 122.976562 79.8125 122.976562 C 80.34375 123.902344 80.386719 125.363281 80.625 126.386719 C 80.949219 127.816406 81.269531 129.261719 81.578125 130.695312 C 82.828125 136.292969 84.0625 141.878906 85.3125 147.476562 C 85.832031 149.808594 86.449219 152.21875 88.765625 153.386719 C 89.929688 153.972656 91.21875 154.085938 92.496094 154.199219 C 94.039062 154.339844 95.582031 154.453125 97.128906 154.5625 C 102.726562 154.984375 108.339844 155.28125 113.964844 155.488281 C 125.289062 155.898438 136.613281 155.9375 147.9375 155.757812 C 159.976562 155.574219 172.015625 155.152344 184.042969 154.703125 C 184 156.472656 183.972656 158.238281 183.929688 160.007812 C 183.875 162.367188 183.609375 164.878906 184.140625 167.191406 C 185.363281 172.441406 191.199219 172.902344 195.621094 173.464844 C 196.140625 173.535156 196.644531 173.578125 197.164062 173.632812 C 197.121094 173.800781 197.09375 173.96875 197.09375 174.152344 C 196.953125 176.832031 196.828125 179.5 196.6875 182.179688 C 196 182.304688 195.4375 182.742188 194.972656 183.34375 C 194.804688 183.570312 194.664062 183.738281 194.371094 184.117188 C 194.117188 184.4375 193.867188 184.746094 193.613281 185.054688 C 193.078125 185.714844 192.546875 186.375 192 187.035156 C 190.875 188.367188 189.738281 189.6875 188.5625 190.976562 C 187.425781 192.242188 186.246094 193.476562 185.054688 194.683594 C 184.773438 194.960938 184.476562 195.242188 184.183594 195.523438 C 172.535156 195.496094 160.902344 195.75 149.269531 196.308594 C 141.257812 196.703125 133.261719 197.277344 125.261719 197.894531 C 118.230469 198.441406 111.171875 198.90625 104.117188 198.554688 C 96.3125 198.160156 88.554688 196.632812 81.636719 192.898438 C 79.65625 191.832031 77.59375 193.585938 78.015625 195.691406 C 78.886719 200.054688 82.605469 203.480469 86.898438 204.28125 C 86.714844 207.898438 86.703125 211.519531 86.898438 215.140625 C 87.011719 217.121094 87.164062 219.082031 87.390625 221.046875 C 87.585938 222.789062 87.738281 224.613281 88.609375 226.171875 C 90.601562 229.804688 94.6875 229.71875 98.304688 229.777344 C 102.726562 229.859375 107.144531 229.929688 111.566406 230.015625 C 129.34375 230.324219 147.136719 230.632812 164.917969 230.925781 C 174.347656 231.082031 183.789062 231.234375 193.21875 231.390625 C 193.023438 234.914062 192.828125 238.433594 192.628906 241.957031 C 191.941406 254.417969 191.242188 266.878906 190.554688 279.324219 C 177.910156 284.8125 164.75 289.046875 151.292969 292.039062 C 148.582031 292.640625 149.171875 296.960938 151.953125 296.878906 C 168.707031 296.402344 185.445312 295.925781 202.199219 295.460938 C 201.457031 295.882812 200.910156 296.625 200.9375 297.566406 C 200.992188 299.347656 201.050781 301.117188 201.105469 302.898438 C 189.710938 303.039062 178.316406 303.164062 166.921875 303.304688 C 166.445312 302.226562 165.96875 301.144531 165.476562 300.0625 C 164.496094 297.847656 160.679688 298.941406 160.875 301.3125 C 161.058594 303.5 161.242188 305.691406 161.421875 307.867188 C 161.507812 308.945312 162.125 309.957031 163.234375 310.25 C 165.5625 310.867188 167.976562 310.980469 170.320312 310.589844 C 170.25 334.613281 171.0625 358.621094 171.539062 382.628906 C 172.046875 407.648438 172.171875 432.710938 170.488281 457.6875 C 169.535156 471.804688 167.976562 485.878906 165.589844 499.828125 C 165.476562 500.515625 165.617188 501.117188 165.925781 501.59375 C 165.84375 515.21875 165.058594 528.84375 163.542969 542.386719 C 163.386719 543.761719 164.804688 544.785156 166.011719 544.855469 C 174.949219 545.304688 183.890625 545.769531 192.839844 546.21875 C 196.222656 546.386719 200.097656 546.636719 203.070312 544.703125 C 204.222656 543.945312 205.019531 543.03125 205.570312 542.007812 C 209.988281 543.046875 215 543.199219 219.195312 541.65625 C 221.410156 540.84375 222.996094 539.273438 223.363281 536.871094 C 223.78125 534.039062 223.53125 530.992188 223.542969 528.117188 C 223.640625 516.132812 223.753906 504.148438 223.851562 492.164062 C 223.910156 486.453125 224.132812 480.6875 223.515625 474.988281 C 222.898438 469.308594 221.117188 464.042969 219.335938 458.65625 C 217.566406 453.324219 216.414062 448.007812 216.066406 442.394531 C 215.699219 436.570312 215.894531 430.730469 215.964844 424.910156 C 216.246094 400.800781 216.511719 376.707031 216.835938 352.601562 C 217.160156 328.589844 217.59375 304.597656 218.507812 280.601562 C 219.109375 264.5625 219.9375 248.523438 221.074219 232.511719 C 226.617188 234.042969 232.425781 233.019531 238.023438 232.160156 C 244.226562 231.207031 250.5 230.785156 256.773438 230.730469 C 269.402344 230.605469 281.972656 231.921875 294.503906 233.3125 C 307.246094 234.714844 320 236.21875 332.828125 236.386719 C 345.597656 236.554688 358.324219 235.320312 371.035156 234.335938 C 384.492188 233.296875 398.132812 232.511719 411.574219 234.167969 C 411.96875 234.714844 412.601562 235.066406 413.5 235.011719 C 435.179688 233.410156 456.957031 233.355469 478.648438 234.800781 C 477.808594 269.332031 477.007812 303.878906 476.910156 338.429688 C 476.785156 382.152344 477.542969 425.863281 479.183594 469.558594 C 480.109375 494.199219 481.328125 518.839844 482.816406 543.453125 C 482.902344 544.785156 483.882812 545.910156 485.289062 545.921875 C 485.875 545.921875 486.5625 545.894531 487.308594 545.8125 C 487.644531 546.527344 488.347656 547.058594 489.425781 547.03125 C 498.617188 546.777344 507.824219 546.527344 517.015625 546.273438 C 519.257812 546.21875 521.503906 546.148438 523.75 546.089844 C 525.894531 546.035156 528.367188 546.203125 530.273438 545.023438 C 531.3125 544.378906 532.027344 543.523438 532.492188 542.539062 C 536.53125 542.007812 540.574219 541.433594 544.601562 540.828125 C 545.992188 540.617188 546.550781 538.976562 546.328125 537.796875 C 542.46875 517.605469 539.144531 497.300781 536.378906 476.925781 C 533.65625 456.832031 531.816406 436.640625 529.363281 416.515625 C 528.070312 405.894531 526.542969 395.316406 524.492188 384.804688 C 524.394531 380.539062 524.324219 376.273438 524.269531 372.007812 C 524.183594 365.3125 524.15625 358.632812 524.183594 351.941406 C 524.550781 351.507812 524.773438 350.929688 524.84375 350.328125 C 525.488281 344.828125 525.292969 339.328125 524.394531 333.867188 C 524.535156 326.628906 524.773438 319.371094 525.070312 312.132812 C 526.894531 311.851562 528.648438 311.316406 530.359375 310.519531 C 531.425781 310.027344 531.648438 308.75 531.496094 307.726562 C 531.074219 304.988281 530.667969 302.265625 530.246094 299.53125 C 530.230469 299.433594 530.203125 299.347656 530.175781 299.25 C 533.109375 299.011719 536.042969 298.773438 538.972656 298.507812 C 541.246094 298.296875 542.539062 295.179688 540.222656 293.902344 C 535.394531 291.265625 530.5 288.753906 525.53125 286.398438 C 521.800781 284.613281 517.910156 282.609375 513.773438 282.230469 C 514.066406 281.835938 514.25 281.34375 514.179688 280.839844 C 512.1875 264.773438 511.484375 248.550781 512.0625 232.371094 C 539.523438 233.089844 566.996094 233.789062 594.457031 234.503906 C 602.246094 234.703125 610.035156 234.914062 617.835938 235.109375 C 619.070312 235.136719 620.445312 233.945312 620.304688 232.640625 C 619.195312 222.492188 618.972656 212.277344 619.617188 202.089844 C 620.445312 201.878906 621.273438 201.671875 622.101562 201.460938 C 623.390625 201.121094 624.179688 199.691406 623.828125 198.429688 C 623.449219 197.039062 622.117188 196.476562 620.796875 196.703125 C 592.464844 201.726562 563.714844 204.335938 534.933594 204.503906 C 527.890625 204.546875 520.84375 204.433594 513.800781 204.183594 C 513.464844 203.664062 512.929688 203.269531 512.328125 203.117188 C 512.3125 202.988281 512.3125 202.863281 512.3125 202.722656 C 513.828125 203.4375 515.554688 203.816406 517.253906 203.886719 C 521.8125 204.082031 526.375 201.121094 530.878906 202.414062 C 533.65625 203.214844 535.058594 199.410156 532.773438 197.910156 C 526.121094 193.515625 519.316406 189.378906 512.339844 185.519531 C 512.257812 185.476562 512.171875 185.449219 512.089844 185.421875 C 511.792969 181.984375 511.332031 178.558594 510.714844 175.148438 C 513.644531 174.714844 516.59375 174.265625 519.527344 173.828125 C 520.664062 173.660156 521.238281 172.441406 521.335938 171.445312 C 521.617188 168.582031 520.902344 165.691406 519.386719 163.265625 C 519.1875 162.941406 518.910156 162.675781 518.601562 162.492188 C 542.3125 162.308594 566.027344 162.113281 589.742188 161.804688 C 600.085938 161.664062 612.136719 160.976562 619.914062 153.1875 C 625.246094 147.84375 628.164062 139.410156 625.371094 132.324219 C 632.332031 131.507812 639.304688 130.695312 646.265625 129.894531 C 647.722656 129.726562 648.550781 128.882812 648.734375 127.425781 C 649.660156 119.75 658.332031 120.871094 663.707031 118.570312 C 667.945312 116.761719 671.3125 113.605469 673.851562 109.800781 C 676.660156 105.578125 678.425781 100.777344 679.605469 95.796875 C 682.398438 91.136719 683.492188 85.566406 681.652344 80.234375 C 681.652344 80.222656 681.640625 80.207031 681.625 80.179688 C 683.703125 79.394531 685.765625 78.59375 687.828125 77.75 C 690.171875 76.796875 692.515625 75.816406 694.832031 74.804688 C 696.667969 74.003906 699.152344 73.5 700.023438 71.535156 C 701.0625 69.207031 701.171875 65.78125 701.679688 63.285156 C 702.226562 60.535156 702.785156 57.785156 703.335938 55.03125 C 703.699219 53.390625 702.238281 51.328125 700.332031 52.03125 Z M 22.039062 70.441406 C 65.90625 81.316406 110.65625 88.105469 155.53125 93.160156 C 202.621094 98.460938 249.894531 102.222656 297.199219 104.734375 C 344.949219 107.261719 392.785156 108.382812 440.609375 108.257812 C 486.253906 108.144531 532.253906 108.0625 577.703125 103.375 C 599.242188 101.144531 620.683594 97.789062 641.71875 92.625 C 652.101562 90.070312 662.386719 87.082031 672.492188 83.574219 C 673.910156 83.082031 675.3125 82.5625 676.730469 82.046875 C 676.40625 85.820312 675.941406 89.847656 675.085938 93.804688 C 673.53125 96.21875 671.367188 98.308594 668.925781 99.824219 C 661.796875 104.242188 652.917969 104.636719 644.792969 105.269531 C 626.789062 106.671875 608.796875 108.0625 590.796875 109.449219 C 554.578125 112.257812 518.332031 115.46875 482.015625 116.773438 C 461.390625 117.503906 440.75 117.5625 420.148438 116.464844 C 419.140625 116.410156 417.960938 117.265625 417.765625 118.277344 C 417.214844 121.082031 416.683594 123.875 416.136719 126.683594 C 375.402344 124.660156 334.59375 124.464844 293.832031 126.105469 C 293.117188 123.074219 292.398438 120.058594 291.683594 117.027344 C 291.429688 115.960938 290.363281 115.246094 289.296875 115.21875 C 250.753906 114.363281 212.246094 112.480469 173.800781 109.5625 C 155.039062 108.132812 136.292969 106.460938 117.570312 104.539062 C 98.8125 102.617188 79.742188 101.113281 61.164062 97.789062 C 45.476562 94.96875 26.375 87.390625 22.039062 70.441406 Z M 79.882812 122.992188 C 79.992188 123.019531 79.953125 123.046875 79.882812 122.992188 Z M 326.609375 160.386719 C 327.03125 172.960938 327.902344 185.503906 329.234375 198.023438 C 301.464844 200.265625 273.570312 200.730469 245.742188 199.328125 C 243.257812 199.199219 240.761719 199.058594 238.277344 198.90625 C 238.417969 198.132812 238.25 197.304688 237.644531 196.730469 C 233.199219 192.507812 229.226562 187.847656 225.804688 182.769531 C 225.535156 182.375 225.199219 182.09375 224.847656 181.914062 C 224.566406 178.980469 224.132812 176.0625 223.53125 173.15625 C 224.089844 173.03125 224.636719 172.902344 225.199219 172.761719 C 225.84375 172.59375 226.476562 172.414062 227.121094 172.214844 C 229.210938 171.921875 231.316406 171.429688 232.859375 169.871094 C 233.421875 169.3125 233.859375 168.609375 234.167969 167.878906 C 234.234375 167.796875 234.304688 167.726562 234.363281 167.65625 C 236.058594 165.398438 236.75 162.4375 235.90625 159.785156 C 266.105469 162.097656 296.398438 162.308594 326.609375 160.386719 Z M 380.804688 163.9375 C 384.351562 164.777344 388.253906 164.203125 391.832031 163.851562 C 396.167969 163.417969 400.492188 163.417969 404.855469 163.390625 C 417.1875 163.292969 429.507812 163.179688 441.84375 163.082031 C 452.4375 162.996094 463.03125 162.914062 473.625 162.84375 C 473.554688 162.925781 473.472656 163.011719 473.414062 163.109375 C 471.816406 165.523438 471.324219 168.652344 472.027344 171.457031 C 471.984375 172.539062 471.96875 173.632812 472.011719 174.726562 C 472.070312 176.019531 473.09375 177.238281 474.480469 177.199219 C 474.988281 177.183594 475.492188 177.167969 475.996094 177.140625 C 477.472656 178.164062 479.167969 178.796875 480.964844 178.992188 C 480.839844 181.097656 480.710938 183.21875 480.628906 185.324219 C 476.558594 187.765625 472.503906 190.207031 468.433594 192.648438 C 465.109375 194.640625 461.152344 196.816406 460.507812 200.925781 C 460.4375 200.925781 460.378906 200.914062 460.308594 200.914062 C 437.28125 201.585938 414.242188 201.515625 391.230469 200.703125 C 385.996094 200.519531 380.773438 200.28125 375.539062 200.015625 C 375.597656 199.578125 375.625 199.144531 375.625 198.710938 C 375.710938 195.003906 375.441406 191.257812 375.34375 187.554688 C 375.148438 179.960938 374.953125 172.371094 374.753906 164.777344 C 374.699219 162.492188 371.261719 161.199219 370.152344 163.53125 C 367.625 168.890625 368.875 175.683594 369 181.433594 C 369.140625 187.792969 369.28125 194.148438 369.421875 200.503906 C 358.574219 202.792969 347.546875 203.410156 336.503906 202.398438 C 337.414062 186.332031 336.824219 170.28125 334.847656 154.324219 C 346.144531 154.648438 357.425781 154.101562 368.621094 152.613281 C 370.207031 152.402344 375.429688 150.816406 376.398438 152.65625 C 376.984375 153.777344 375.765625 156.542969 375.738281 157.847656 C 375.722656 161.0625 377.773438 163.207031 380.804688 163.9375 Z M 505.84375 175.765625 C 506.8125 181 507.375 186.289062 507.542969 191.59375 C 506.769531 195.664062 506.699219 199.816406 507.277344 203.941406 C 507.277344 203.957031 507.277344 203.957031 507.277344 203.972656 C 507.304688 204.195312 507.332031 204.40625 507.359375 204.628906 C 507.402344 204.871094 507.5 205.078125 507.613281 205.277344 C 507.695312 205.921875 507.792969 206.566406 507.921875 207.199219 C 508.046875 207.789062 508.441406 208.25 508.929688 208.574219 C 506.828125 227.039062 506.378906 245.6875 507.65625 264.238281 C 508.035156 269.796875 508.582031 275.339844 509.269531 280.867188 C 509.339844 281.457031 509.5625 282.003906 509.898438 282.441406 C 505.042969 283.210938 500.316406 285.5 495.753906 287.183594 C 491.277344 288.839844 486.800781 290.480469 482.339844 292.136719 C 482.410156 288.277344 482.464844 284.433594 482.550781 280.574219 C 483.042969 256.453125 483.671875 232.34375 484.25 208.222656 C 484.878906 207.800781 485.328125 207.113281 485.316406 206.230469 C 485.117188 196.40625 485.355469 186.597656 486.03125 176.804688 C 491.207031 176.636719 496.386719 176.453125 501.550781 176.171875 C 502.96875 176.101562 504.414062 175.976562 505.84375 175.765625 Z M 519.539062 332.351562 C 518.023438 332.535156 516.496094 332.71875 514.980469 332.914062 C 514.980469 332.042969 514.980469 331.171875 514.980469 330.304688 C 514.964844 328.4375 514.8125 326.628906 512.957031 325.6875 C 511.386719 324.886719 509.199219 325.265625 507.5 325.265625 C 505.96875 325.265625 504.214844 325.070312 502.855469 325.925781 C 500.792969 327.230469 501.117188 329.519531 501.464844 331.582031 C 501.773438 333.40625 501.816406 335.578125 502.898438 337.136719 C 502.996094 337.292969 503.109375 337.417969 503.21875 337.542969 C 503.078125 340.6875 502.941406 343.816406 502.800781 346.960938 C 502.632812 350.832031 502.210938 354.777344 502.28125 358.648438 C 502.320312 360.824219 503.597656 361.960938 505.605469 362.410156 C 507.234375 362.773438 509.113281 363.449219 510.796875 363.363281 C 513 363.265625 514.109375 361.636719 514.292969 359.601562 C 514.460938 357.652344 514.488281 355.6875 514.574219 353.738281 C 514.796875 348.433594 514.921875 343.128906 514.980469 337.824219 C 516.464844 337.640625 517.953125 337.460938 519.441406 337.277344 C 519.1875 352.292969 519.273438 367.304688 519.566406 382.320312 C 519.328125 382.785156 519.230469 383.332031 519.355469 383.949219 C 519.457031 384.425781 519.539062 384.902344 519.625 385.367188 C 519.863281 396.03125 520.199219 406.679688 520.632812 417.332031 C 521.363281 435.136719 522.332031 452.929688 523.371094 470.710938 C 524.410156 488.335938 525.207031 506 526.824219 523.582031 C 527.257812 528.242188 528.097656 532.914062 528.394531 537.585938 C 528.40625 537.757812 528.421875 537.9375 528.421875 538.121094 C 517.222656 539.566406 506 540.746094 494.746094 541.671875 C 494.800781 541.472656 494.84375 541.277344 494.855469 541.082031 C 495.25 536.800781 495.417969 532.480469 495.601562 528.171875 C 495.964844 519.78125 496.121094 511.390625 496.105469 503 C 496.078125 485.964844 495.402344 468.941406 494.589844 451.921875 C 492.976562 417.90625 490.800781 383.851562 492.234375 349.78125 C 492.613281 340.714844 493.550781 331.679688 493.789062 322.613281 C 493.890625 319.078125 493.832031 315.5 493.511719 311.964844 C 502.40625 311.808594 511.304688 311.5 520.183594 311.039062 C 519.90625 318.164062 519.695312 325.25 519.539062 332.351562 Z M 509.730469 350.820312 C 509.648438 353.273438 509.535156 355.730469 509.410156 358.183594 C 509.269531 358.15625 509.15625 358.144531 509.113281 358.128906 C 508.59375 358.015625 508.074219 357.90625 507.570312 357.792969 C 507.429688 357.765625 507.304688 357.738281 507.164062 357.707031 C 507.207031 357.1875 507.289062 356.640625 507.304688 356.222656 C 507.34375 355.253906 507.386719 354.269531 507.429688 353.300781 C 507.515625 351.269531 507.613281 349.246094 507.695312 347.210938 C 507.824219 344.363281 507.949219 341.527344 508.074219 338.679688 C 508.382812 338.636719 508.707031 338.597656 509.015625 338.570312 C 509.339844 338.527344 509.675781 338.484375 509.996094 338.441406 C 509.984375 342.566406 509.886719 346.691406 509.730469 350.820312 Z M 506.109375 329.335938 C 506.097656 329.308594 506.082031 329.265625 506.070312 329.25 C 506.109375 329.265625 506.125 329.292969 506.109375 329.335938 Z M 506.433594 357.527344 C 506.25 357.457031 506.277344 357.414062 506.433594 357.527344 Z M 509.03125 333.628906 C 508.621094 333.683594 508.214844 333.726562 507.808594 333.785156 C 507.527344 333.40625 507.121094 333.164062 506.671875 333.027344 C 506.617188 332.660156 506.546875 332.296875 506.488281 331.929688 C 506.460938 331.777344 506.378906 330.90625 506.277344 330.207031 C 506.671875 330.207031 507.078125 330.207031 507.472656 330.207031 C 508.3125 330.207031 509.15625 330.191406 509.984375 330.191406 C 509.996094 330.484375 510.027344 330.765625 510.027344 331.03125 C 510.027344 331.859375 510.027344 332.6875 510.027344 333.515625 C 509.703125 333.542969 509.367188 333.585938 509.03125 333.628906 Z M 465.292969 202.089844 C 465.347656 201.429688 465.769531 200.617188 466.132812 200.183594 C 467.4375 198.695312 469.445312 197.769531 471.113281 196.773438 C 474.203125 194.90625 477.300781 193.054688 480.390625 191.1875 C 480.292969 194.949219 480.277344 198.710938 480.320312 202.457031 C 475.507812 200.8125 470.214844 200.644531 465.292969 202.089844 Z M 201.078125 193.65625 C 201.359375 187.933594 201.652344 182.191406 201.933594 176.46875 C 207.5625 176.03125 213.1875 175.316406 218.730469 174.222656 C 220.175781 181.167969 220.5 188.269531 220.332031 195.355469 C 213.890625 195.214844 207.449219 195.257812 201.023438 195.453125 C 201.09375 194.863281 201.105469 194.261719 201.078125 193.65625 Z M 198.273438 168.804688 C 198.285156 168.804688 198.285156 168.804688 198.300781 168.804688 C 201.992188 168.75 205.667969 168.695312 209.355469 168.636719 C 211.460938 168.609375 213.566406 168.566406 215.671875 168.539062 C 213.890625 168.695312 212.121094 168.835938 210.339844 168.933594 C 206.328125 169.144531 202.300781 169.144531 198.273438 168.804688 Z M 225.253906 195.496094 C 225.296875 193.785156 225.3125 192.085938 225.285156 190.375 C 226.699219 192.199219 228.1875 193.964844 229.746094 195.664062 C 228.246094 195.59375 226.757812 195.550781 225.253906 195.496094 Z M 230.558594 159.796875 C 230.617188 160.050781 230.714844 160.289062 230.867188 160.554688 C 231.105469 160.933594 231.246094 161.3125 231.304688 161.691406 C 231.023438 161.734375 230.726562 161.832031 230.449219 161.988281 C 228.089844 163.304688 225.382812 163.433594 222.730469 163.503906 C 219.503906 163.574219 216.273438 163.601562 213.035156 163.65625 C 209.679688 163.710938 206.3125 163.769531 202.957031 163.8125 C 200.011719 163.851562 197.023438 164.050781 194.074219 163.894531 C 192.519531 163.8125 190.359375 163.503906 189.65625 162.351562 C 188.714844 160.835938 190.273438 159.054688 191.632812 158.394531 C 193.976562 157.257812 196.9375 157.691406 199.4375 157.847656 C 202.746094 158.058594 206.074219 158.269531 209.386719 158.480469 C 216.445312 158.914062 223.5 159.363281 230.558594 159.796875 Z M 193.25 193.195312 C 194.117188 192.199219 194.972656 191.1875 195.816406 190.175781 C 195.832031 190.316406 195.871094 190.585938 195.871094 190.597656 C 195.898438 190.851562 195.929688 191.089844 195.957031 191.34375 C 196.039062 192.171875 196.109375 193.011719 196.140625 193.839844 C 196.125 194.261719 196.097656 194.667969 196.082031 195.089844 C 195.648438 195.074219 195.199219 195.074219 194.761719 195.074219 C 193.683594 195.074219 192.601562 195.132812 191.535156 195.242188 C 191.480469 195.242188 191.425781 195.257812 191.367188 195.269531 C 191.984375 194.582031 192.628906 193.894531 193.25 193.195312 Z M 144.554688 225.679688 C 136.292969 225.539062 128.011719 225.398438 119.746094 225.257812 C 115.550781 225.1875 111.371094 225.117188 107.175781 225.035156 C 103.230469 224.964844 99.230469 225.089844 95.289062 224.808594 C 93.464844 224.683594 92.832031 224.050781 92.511719 222.269531 C 92.132812 220.164062 92.035156 217.960938 91.90625 215.828125 C 91.625 211.226562 91.683594 206.59375 92.003906 201.992188 C 92.003906 201.964844 92.003906 201.921875 92.003906 201.894531 C 101.476562 204.027344 111.496094 203.832031 121.207031 203.15625 C 137.457031 202.046875 153.664062 200.882812 169.953125 200.589844 C 174.207031 200.519531 178.445312 200.476562 182.695312 200.492188 C 183.144531 201.011719 183.789062 201.359375 184.492188 201.304688 C 184.546875 201.304688 184.605469 201.304688 184.644531 201.292969 C 185.09375 201.460938 185.601562 201.5 186.105469 201.347656 C 186.34375 201.277344 186.597656 201.222656 186.835938 201.152344 C 189.726562 200.941406 192.617188 200.773438 195.507812 200.632812 C 196.460938 200.644531 197.429688 200.660156 198.382812 200.6875 C 198.75 200.703125 199.085938 200.617188 199.394531 200.476562 C 205.890625 200.238281 212.386719 200.183594 218.886719 200.292969 C 216.570312 223.449219 215.039062 246.671875 214.015625 269.910156 C 213.722656 276.53125 213.484375 283.15625 213.257812 289.777344 C 211.042969 289.105469 208.851562 288.359375 206.675781 287.546875 C 202.832031 285.765625 198.988281 283.984375 195.140625 282.199219 C 195.3125 281.835938 195.410156 281.414062 195.4375 281.050781 C 196.179688 267.59375 196.9375 254.136719 197.683594 240.664062 C 198.046875 234.085938 198.46875 227.503906 198.777344 220.90625 C 199.042969 215.492188 198.859375 209.652344 195.550781 205.09375 C 194.441406 203.578125 191.4375 203.382812 191.046875 205.683594 C 189.839844 212.628906 190.007812 219.671875 191.632812 226.492188 C 175.933594 226.210938 160.246094 225.945312 144.554688 225.679688 Z M 190.425781 285.398438 C 193.90625 287.324219 197.484375 289.0625 201.148438 290.605469 C 191.605469 290.871094 182.078125 291.152344 172.535156 291.421875 C 178.402344 289.527344 184.183594 287.378906 189.878906 285.007812 C 190.035156 285.132812 190.203125 285.273438 190.425781 285.398438 Z M 218.746094 476.601562 C 219.195312 482.230469 218.96875 487.898438 218.925781 493.527344 C 218.871094 499.351562 218.828125 505.171875 218.773438 510.996094 C 218.714844 516.820312 218.675781 522.644531 218.617188 528.464844 C 218.605469 529.8125 218.589844 531.160156 218.589844 532.492188 C 218.578125 533.433594 218.96875 535.59375 218.464844 536.464844 C 218.128906 537.027344 217.171875 537.167969 216.597656 537.292969 C 215.25 537.617188 213.875 537.769531 212.488281 537.8125 C 210.492188 537.867188 208.558594 537.65625 206.648438 537.207031 C 206.664062 536.339844 206.621094 535.441406 206.566406 534.554688 C 205.21875 516.664062 204.109375 498.746094 202.957031 480.839844 C 201.808594 462.753906 200.742188 444.652344 199.871094 426.535156 C 199 408.519531 198.34375 390.488281 197.992188 372.457031 C 197.710938 357.765625 197.640625 343.058594 197.835938 328.367188 C 198.777344 322.796875 198.917969 317.085938 198.171875 311.472656 C 198.003906 310.152344 197.164062 309.003906 195.703125 309.003906 C 194.34375 309.003906 193.277344 310.140625 193.234375 311.472656 C 193.078125 316.917969 192.980469 322.359375 192.910156 327.804688 C 192.628906 329.433594 192.292969 331.046875 191.859375 332.648438 C 191.789062 332.5625 191.71875 332.476562 191.664062 332.410156 C 190.988281 331.511719 190.484375 330.402344 190.019531 329.378906 C 188.882812 326.867188 187.535156 324.523438 185.082031 323.078125 C 182.402344 321.492188 178.921875 321.925781 177.195312 324.703125 C 175.566406 327.34375 176.15625 330.808594 176.285156 333.726562 C 176.453125 337.277344 176.621094 340.828125 176.773438 344.378906 C 176.914062 347.378906 176.800781 350.578125 177.558594 353.511719 C 178.246094 356.179688 180 358.605469 182.78125 359.292969 C 185.460938 359.96875 188.140625 358.632812 189.851562 356.601562 C 192.082031 353.933594 192.800781 350.707031 192.335938 347.324219 C 191.902344 344.152344 190.667969 341.082031 190.707031 337.851562 C 191.339844 338.160156 192.042969 338.359375 192.785156 338.457031 C 192.742188 347.171875 192.785156 355.871094 192.910156 364.585938 C 193.164062 382.292969 193.738281 400 194.523438 417.695312 C 195.3125 435.40625 196.308594 453.085938 197.386719 470.78125 C 198.46875 488.347656 199.648438 505.929688 200.839844 523.484375 C 201.132812 527.75 201.511719 532.015625 201.75 536.28125 C 201.820312 537.628906 201.921875 539.300781 200.839844 540.28125 C 200.011719 541.039062 198.707031 541.292969 197.597656 541.375 C 193.710938 541.683594 189.683594 541.152344 185.796875 540.957031 C 181.40625 540.730469 177.011719 540.507812 172.636719 540.28125 C 171.34375 540.210938 170.054688 540.15625 168.761719 540.085938 C 170.164062 526.78125 170.894531 513.410156 170.921875 500.023438 C 170.921875 499.660156 170.851562 499.351562 170.742188 499.070312 C 174.738281 474.890625 176.351562 450.390625 176.746094 425.90625 C 177.152344 400.605469 176.339844 375.304688 175.765625 350.003906 C 175.457031 336.070312 175.214844 322.121094 175.300781 308.175781 C 184.757812 308.0625 194.230469 307.949219 203.6875 307.835938 C 204.992188 307.824219 206.199219 306.714844 206.15625 305.367188 C 206.101562 303.488281 206.046875 301.621094 205.988281 299.742188 C 208.5 299.292969 210.871094 298.421875 213.0625 297.132812 C 212.640625 311.472656 212.332031 325.828125 212.109375 340.167969 C 211.742188 363.574219 211.503906 386.964844 211.238281 410.371094 C 211.167969 416.238281 211.097656 422.101562 211.027344 427.980469 C 210.957031 433.539062 210.84375 439.109375 211.335938 444.636719 C 211.839844 450.238281 213.117188 455.554688 214.914062 460.875 C 216.625 466.050781 218.308594 471.144531 218.746094 476.601562 Z M 186.90625 345.191406 C 187.410156 347.339844 188.027344 349.613281 187.144531 351.730469 C 186.863281 352.402344 186.457031 353.0625 185.9375 353.597656 C 185.628906 353.917969 185.375 354.144531 184.984375 354.339844 C 184.644531 354.507812 184.632812 354.535156 184.308594 354.535156 C 182.976562 354.566406 182.402344 352.753906 182.148438 351.378906 C 181.699219 348.953125 181.8125 346.34375 181.699219 343.886719 C 181.671875 343.339844 181.644531 342.804688 181.628906 342.257812 C 183.0625 341.65625 184.507812 341.066406 185.9375 340.460938 C 186.148438 342.046875 186.527344 343.632812 186.90625 345.191406 Z M 181.265625 334.695312 C 181.195312 333.25 181.125 331.789062 181.066406 330.34375 C 181.039062 329.503906 180.859375 328.28125 181.277344 327.511719 C 181.460938 327.175781 181.460938 327.175781 181.785156 327.003906 C 181.515625 327.144531 182.066406 327.117188 181.882812 327.046875 C 182.722656 327.371094 183.425781 327.902344 184.058594 328.660156 C 185.488281 330.386719 185.980469 332.757812 187.214844 334.625 C 185.265625 335.4375 183.328125 336.253906 181.375 337.066406 C 181.347656 336.265625 181.308594 335.480469 181.265625 334.695312 Z M 415.925781 229.929688 C 415.769531 229.847656 415.601562 229.789062 415.421875 229.761719 C 389.796875 226 364.203125 231.023438 338.550781 231.445312 C 313.027344 231.867188 287.894531 226.394531 262.425781 225.832031 C 255.296875 225.679688 248.140625 225.917969 241.054688 226.800781 C 235.203125 227.53125 228.972656 229.230469 223.109375 227.925781 C 223.769531 219.5625 224.484375 211.199219 224.960938 202.835938 C 252.589844 205.136719 280.359375 205.65625 308.046875 204.335938 C 315.300781 203.984375 322.554688 203.507812 329.796875 202.917969 C 329.90625 203.929688 330.019531 204.925781 330.148438 205.9375 C 330.316406 207.296875 331.144531 208.347656 332.617188 208.40625 C 339.996094 208.65625 347.378906 208.476562 354.730469 207.800781 C 358.296875 207.480469 361.84375 207.03125 365.382812 206.496094 C 367.585938 206.160156 370.222656 206.007812 372.300781 204.941406 C 372.410156 204.910156 372.523438 204.898438 372.621094 204.871094 C 372.691406 204.855469 372.761719 204.828125 372.820312 204.800781 C 395.425781 205.992188 418.074219 206.46875 440.71875 206.214844 C 447.257812 206.144531 453.785156 206.007812 460.308594 205.824219 C 460.746094 205.808594 461.109375 205.710938 461.417969 205.542969 C 461.839844 206.1875 462.386719 206.75 463.058594 207.128906 C 464.265625 207.800781 465.332031 207.199219 466.496094 206.847656 C 467.535156 206.539062 468.601562 206.273438 469.683594 206.144531 C 472.9375 205.738281 476.25 206.160156 479.296875 207.3125 C 478.507812 214.789062 477.738281 222.285156 476.953125 229.761719 C 456.621094 228.5 436.230469 228.554688 415.925781 229.929688 Z M 482.464844 411.761719 C 481.722656 374.308594 481.652344 336.855469 482.214844 299.40625 C 483.070312 299.699219 483.96875 299.867188 484.878906 299.921875 C 484.878906 299.964844 484.878906 299.992188 484.894531 300.023438 C 485.425781 303.433594 485.972656 306.855469 486.507812 310.265625 C 486.664062 311.207031 487.660156 311.921875 488.585938 312.046875 C 489.539062 321.898438 488.304688 332.042969 487.730469 341.867188 C 486.773438 357.976562 486.703125 374.113281 487.070312 390.25 C 487.796875 422.566406 490.28125 454.796875 491 487.113281 C 491.390625 504.722656 491.238281 522.347656 490.015625 539.929688 C 489.242188 540.308594 488.445312 540.578125 487.617188 540.757812 C 485.035156 497.777344 483.324219 454.785156 482.464844 411.761719 Z M 527.59375 444.707031 C 529.785156 464.914062 532.421875 485.066406 535.632812 505.144531 C 537.304688 515.585938 539.128906 526.011719 541.09375 536.394531 C 538.511719 536.773438 535.914062 537.136719 533.332031 537.488281 C 533.320312 537.136719 533.292969 536.800781 533.25 536.464844 C 531.160156 518.40625 530.121094 500.289062 529.011719 482.144531 C 528 465.460938 527.046875 448.777344 526.246094 432.078125 C 526.683594 436.289062 527.132812 440.5 527.59375 444.707031 Z M 523.960938 305.929688 C 513.617188 306.53125 503.261719 306.910156 492.90625 307.066406 C 492.597656 305.242188 492.21875 303.417969 491.726562 301.636719 C 502.996094 301.1875 514.25 300.542969 525.488281 299.671875 C 524.984375 301.761719 524.480469 303.839844 523.960938 305.929688 Z M 530.441406 294.324219 C 517.015625 295.433594 503.570312 296.261719 490.113281 296.78125 C 490.085938 296.710938 490.058594 296.625 490.03125 296.542969 C 489.761719 295.867188 489.300781 295.320312 488.726562 295.011719 C 491.097656 294.140625 493.453125 293.273438 495.824219 292.386719 C 498.308594 291.476562 500.808594 290.550781 503.289062 289.636719 C 505.589844 288.78125 507.90625 287.8125 510.320312 287.335938 C 515.148438 286.367188 519.75 289.089844 523.945312 291.097656 C 526.136719 292.148438 528.296875 293.230469 530.441406 294.324219 Z M 597.585938 205.234375 C 603.296875 204.492188 608.980469 203.664062 614.664062 202.738281 C 614.132812 211.871094 614.285156 221.019531 615.140625 230.128906 C 588.410156 229.441406 561.679688 228.753906 534.945312 228.050781 C 527.988281 227.867188 521.027344 227.6875 514.054688 227.515625 C 514.09375 221.398438 514.136719 215.28125 514.179688 209.164062 C 542.035156 210.117188 569.957031 208.8125 597.585938 205.234375 Z M 514.882812 198.527344 C 513.746094 198.121094 512.988281 197.488281 512.707031 196.421875 C 512.664062 196.28125 512.609375 196.140625 512.550781 196.015625 C 512.566406 194.667969 512.539062 193.308594 512.507812 191.960938 C 512.550781 191.761719 512.609375 191.582031 512.648438 191.382812 C 516.367188 193.488281 520.03125 195.679688 523.652344 197.9375 C 522.121094 198.316406 520.523438 198.777344 519.160156 198.933594 C 517.644531 199.101562 516.242188 199.019531 514.882812 198.527344 Z M 514.910156 163.867188 C 513.335938 170.601562 504.902344 171.121094 499.332031 171.332031 C 492.132812 171.597656 484.9375 171.867188 477.738281 172.117188 C 477.679688 172.046875 477.613281 171.976562 477.554688 171.894531 C 477.316406 171.558594 477.148438 171.207031 477.007812 170.839844 C 477.132812 168.875 477.429688 166.925781 477.921875 164.988281 C 478.160156 164.089844 477.90625 163.332031 477.429688 162.785156 C 490.226562 162.703125 503.023438 162.605469 515.820312 162.519531 C 515.386719 162.828125 515.050781 163.265625 514.910156 163.867188 Z M 667.441406 110.09375 C 663.273438 114.515625 658.445312 114.542969 652.972656 116.199219 C 648.441406 117.574219 645.4375 120.898438 644.257812 125.222656 C 636.667969 126.105469 629.089844 126.992188 621.496094 127.875 C 619.855469 128.070312 618.160156 129.894531 619.363281 131.59375 C 624.570312 138.832031 619.6875 148.558594 612.6875 152.585938 C 603.523438 157.832031 591.917969 156.878906 581.757812 156.976562 C 558.550781 157.171875 535.355469 157.371094 512.144531 157.566406 C 488.710938 157.761719 465.277344 157.960938 441.828125 158.15625 C 430.40625 158.253906 418.984375 158.351562 407.5625 158.449219 C 402.988281 158.492188 398.371094 158.308594 393.8125 158.746094 C 390.332031 159.066406 386.710938 159.671875 383.203125 159.347656 C 380.902344 159.136719 380.535156 158.578125 380.914062 156.332031 C 381.210938 154.5625 381.617188 152.808594 381.042969 151.054688 C 379.625 146.664062 375.09375 146.777344 371.316406 147.324219 C 358.308594 149.203125 345.203125 149.890625 332.054688 149.34375 C 330.273438 149.273438 329.472656 150.972656 329.667969 152.472656 C 329.808594 153.511719 329.921875 154.5625 330.046875 155.601562 C 329.710938 155.417969 329.347656 155.320312 328.941406 155.347656 C 296.230469 157.550781 263.410156 157.242188 230.757812 154.464844 C 230.140625 154.410156 229.648438 154.5625 229.269531 154.832031 C 222.464844 154.394531 215.65625 153.972656 208.851562 153.539062 C 205.175781 153.300781 201.5 153.046875 197.824219 152.835938 C 194.863281 152.667969 191.578125 152.753906 188.925781 154.253906 C 188.941406 153.566406 188.953125 152.878906 188.96875 152.191406 C 188.996094 150.902344 187.816406 149.679688 186.5 149.722656 C 164.339844 150.535156 142.171875 151.335938 120 150.789062 C 114.457031 150.648438 108.929688 150.425781 103.398438 150.101562 C 100.636719 149.933594 97.871094 149.75 95.105469 149.527344 C 93.984375 149.441406 92.804688 149.414062 91.695312 149.230469 C 90.730469 149.078125 90.628906 148.753906 90.390625 147.855469 C 89.015625 142.664062 88.046875 137.316406 86.871094 132.070312 C 86.265625 129.347656 85.664062 126.640625 85.058594 123.917969 C 84.5 121.417969 83.78125 118.992188 81.003906 118.25 C 79.65625 117.882812 78.167969 117.96875 76.792969 117.941406 C 75.238281 117.898438 73.695312 117.855469 72.136719 117.8125 C 69.175781 117.730469 66.089844 117.898438 63.15625 117.5625 C 62.300781 117.460938 62.117188 117.195312 61.753906 116.410156 C 61.105469 115.019531 60.574219 113.5625 59.984375 112.128906 C 58.777344 109.210938 57.570312 106.277344 56.363281 103.359375 C 55.941406 102.335938 55.171875 101.550781 53.976562 101.550781 C 52.996094 101.550781 51.746094 102.308594 51.59375 103.359375 C 51.453125 104.398438 51.3125 105.449219 51.15625 106.488281 C 49.136719 106.601562 47.101562 106.699219 45.082031 106.8125 C 44.296875 106.855469 43.046875 107.175781 42.414062 106.628906 C 41.714844 106.027344 41.308594 104.777344 40.898438 103.992188 C 39.382812 101.015625 37.996094 97.984375 36.703125 94.914062 C 39.214844 96.34375 41.867188 97.578125 44.578125 98.589844 C 52.773438 101.675781 61.484375 102.996094 70.117188 104.117188 C 79.964844 105.394531 89.84375 106.515625 99.722656 107.613281 C 139.855469 112.074219 180.128906 115.386719 220.457031 117.574219 C 242.710938 118.78125 264.996094 119.625 287.277344 120.144531 C 288.007812 123.214844 288.738281 126.273438 289.453125 129.347656 C 289.691406 130.359375 290.785156 131.199219 291.839844 131.15625 C 333.90625 129.402344 376.03125 129.601562 418.085938 131.761719 C 419.097656 131.816406 420.277344 130.960938 420.472656 129.953125 C 421.019531 127.144531 421.550781 124.351562 422.101562 121.546875 C 460.40625 123.425781 498.742188 121.390625 536.953125 118.585938 C 556.277344 117.167969 575.585938 115.625 594.894531 114.121094 C 613.933594 112.648438 633.074219 111.652344 652.058594 109.632812 C 658.78125 108.917969 665.867188 107.570312 671.648438 103.949219 C 670.570312 106.152344 669.164062 108.257812 667.441406 110.09375 Z M 667.441406 110.09375 " fill-opacity="1" fill-rule="nonzero"/></g></svg>