<svg xmlns="http://www.w3.org/2000/svg" xmlns:xlink="http://www.w3.org/1999/xlink" width="940" zoomAndPan="magnify" viewBox="0 0 705 591.000005" height="788" preserveAspectRatio="xMidYMid meet" version="1.0"><defs><g/></defs><g fill="#b4647a" fill-opacity="1"><g transform="translate(25.562188, 266.215664)"><g><path d="M 47 -59.40625 C 45.125 -56.207031 43.101562 -53.054688 40.9375 -49.953125 C 38.769531 -46.859375 36.28125 -44.085938 33.46875 -41.640625 C 39.476562 -34.742188 42.890625 -26.566406 43.703125 -17.109375 C 43.828125 -15.347656 43.46875 -13.921875 42.625 -12.828125 C 41.78125 -11.734375 40.679688 -11.015625 39.328125 -10.671875 C 37.984375 -10.328125 36.59375 -10.328125 35.15625 -10.671875 C 33.71875 -11.015625 32.460938 -11.734375 31.390625 -12.828125 C 30.328125 -13.921875 29.734375 -15.347656 29.609375 -17.109375 C 29.296875 -20.492188 28.382812 -23.6875 26.875 -26.6875 C 25.375 -29.695312 23.40625 -32.332031 20.96875 -34.59375 C 20.332031 -26.632812 19.484375 -18.769531 18.421875 -11 C 18.234375 -9.75 17.65625 -8.695312 16.6875 -7.84375 C 15.71875 -7 14.585938 -6.40625 13.296875 -6.0625 C 12.015625 -5.71875 10.8125 -5.703125 9.6875 -6.015625 C 7.675781 -6.578125 6.296875 -7.6875 5.546875 -9.34375 C 4.796875 -11.007812 4.546875 -12.78125 4.796875 -14.65625 C 5.984375 -23.5625 6.875 -32.507812 7.46875 -41.5 C 8.0625 -50.488281 8.390625 -59.46875 8.453125 -68.4375 C 8.453125 -70.25 8.921875 -71.703125 9.859375 -72.796875 C 10.804688 -73.898438 11.984375 -74.625 13.390625 -74.96875 C 14.804688 -75.3125 16.21875 -75.3125 17.625 -74.96875 C 19.03125 -74.625 20.203125 -73.898438 21.140625 -72.796875 C 22.085938 -71.703125 22.5625 -70.25 22.5625 -68.4375 C 22.5 -65.363281 22.4375 -62.304688 22.375 -59.265625 C 22.3125 -56.222656 22.1875 -53.171875 22 -50.109375 C 23.875 -51.234375 25.59375 -52.75 27.15625 -54.65625 C 28.726562 -56.570312 30.140625 -58.59375 31.390625 -60.71875 C 32.648438 -62.851562 33.78125 -64.765625 34.78125 -66.453125 C 35.71875 -68.023438 36.859375 -69.046875 38.203125 -69.515625 C 39.554688 -69.984375 40.9375 -70.03125 42.34375 -69.65625 C 43.757812 -69.28125 44.984375 -68.570312 46.015625 -67.53125 C 47.046875 -66.5 47.6875 -65.28125 47.9375 -63.875 C 48.1875 -62.46875 47.875 -60.976562 47 -59.40625 Z M 47 -59.40625 "/></g></g></g><g fill="#b4647a" fill-opacity="1"><g transform="translate(78.198105, 266.215664)"><g><path d="M 52.265625 -59.875 C 53.765625 -57.4375 54.796875 -54.695312 55.359375 -51.65625 C 55.929688 -48.613281 56.1875 -45.539062 56.125 -42.4375 C 56.0625 -39.332031 55.804688 -36.4375 55.359375 -33.75 C 54.734375 -29.613281 53.445312 -25.695312 51.5 -22 C 49.5625 -18.300781 46.960938 -15.101562 43.703125 -12.40625 C 40.578125 -9.832031 36.945312 -7.953125 32.8125 -6.765625 C 28.675781 -5.578125 24.632812 -5.609375 20.6875 -6.859375 C 18.050781 -7.671875 15.757812 -9.015625 13.8125 -10.890625 C 11.875 -12.773438 10.242188 -14.925781 8.921875 -17.34375 C 7.609375 -19.757812 6.640625 -22.21875 6.015625 -24.71875 C 5.265625 -27.476562 4.828125 -30.660156 4.703125 -34.265625 C 4.578125 -37.867188 4.828125 -41.550781 5.453125 -45.3125 C 6.078125 -49.070312 7.109375 -52.578125 8.546875 -55.828125 C 9.992188 -59.085938 11.9375 -61.785156 14.375 -63.921875 C 16.882812 -66.492188 19.894531 -68.3125 23.40625 -69.375 C 26.914062 -70.4375 30.519531 -70.796875 34.21875 -70.453125 C 37.914062 -70.109375 41.359375 -69.039062 44.546875 -67.25 C 47.742188 -65.46875 50.316406 -63.007812 52.265625 -59.875 Z M 35.15625 -23.3125 C 37.289062 -25.3125 38.875 -27.644531 39.90625 -30.3125 C 40.9375 -32.976562 41.578125 -35.765625 41.828125 -38.671875 C 42.078125 -41.585938 42.015625 -44.425781 41.640625 -47.1875 C 41.265625 -49.945312 40.179688 -52.203125 38.390625 -53.953125 C 36.609375 -55.710938 34.242188 -56.5625 31.296875 -56.5 C 29.671875 -56.5 28.085938 -56.085938 26.546875 -55.265625 C 25.015625 -54.453125 23.75 -53.390625 22.75 -52.078125 C 21.625 -50.503906 20.804688 -48.617188 20.296875 -46.421875 C 19.796875 -44.234375 19.421875 -42.203125 19.171875 -40.328125 C 18.609375 -36.128906 18.828125 -31.992188 19.828125 -27.921875 C 20.140625 -26.722656 20.5625 -25.53125 21.09375 -24.34375 C 21.632812 -23.15625 22.40625 -22.1875 23.40625 -21.4375 C 25.03125 -20.238281 26.890625 -19.8125 28.984375 -20.15625 C 31.085938 -20.507812 32.925781 -21.34375 34.5 -22.65625 C 34.6875 -22.84375 34.90625 -23.0625 35.15625 -23.3125 Z M 35.15625 -23.3125 "/></g></g></g><g fill="#b4647a" fill-opacity="1"><g transform="translate(139.105342, 266.215664)"><g><path d="M 42.859375 -64.671875 C 44.617188 -64.484375 46.03125 -63.835938 47.09375 -62.734375 C 48.15625 -61.640625 48.875 -60.375 49.25 -58.9375 C 49.625 -57.5 49.625 -56.101562 49.25 -54.75 C 48.875 -53.40625 48.15625 -52.328125 47.09375 -51.515625 C 46.03125 -50.703125 44.617188 -50.421875 42.859375 -50.671875 C 39.921875 -51.046875 36.914062 -51.328125 33.84375 -51.515625 C 33.40625 -44.617188 32.976562 -37.753906 32.5625 -30.921875 C 32.15625 -24.097656 31.734375 -17.269531 31.296875 -10.4375 C 31.234375 -8.613281 30.6875 -7.15625 29.65625 -6.0625 C 28.625 -4.96875 27.398438 -4.25 25.984375 -3.90625 C 24.578125 -3.5625 23.179688 -3.5625 21.796875 -3.90625 C 20.421875 -4.25 19.296875 -4.96875 18.421875 -6.0625 C 17.546875 -7.15625 17.140625 -8.613281 17.203125 -10.4375 C 17.640625 -17.269531 18.0625 -24.128906 18.46875 -31.015625 C 18.875 -37.910156 19.296875 -44.773438 19.734375 -51.609375 C 16.921875 -51.546875 14.164062 -51.359375 11.46875 -51.046875 C 9.644531 -50.921875 8.1875 -51.265625 7.09375 -52.078125 C 6 -52.890625 5.28125 -53.984375 4.9375 -55.359375 C 4.59375 -56.742188 4.609375 -58.15625 4.984375 -59.59375 C 5.359375 -61.039062 6.078125 -62.28125 7.140625 -63.3125 C 8.203125 -64.34375 9.644531 -64.953125 11.46875 -65.140625 C 21.9375 -66.203125 32.398438 -66.046875 42.859375 -64.671875 Z M 42.859375 -64.671875 "/></g></g></g><g fill="#b4647a" fill-opacity="1"><g transform="translate(193.339105, 266.215664)"><g><path d="M 52.265625 -59.875 C 53.765625 -57.4375 54.796875 -54.695312 55.359375 -51.65625 C 55.929688 -48.613281 56.1875 -45.539062 56.125 -42.4375 C 56.0625 -39.332031 55.804688 -36.4375 55.359375 -33.75 C 54.734375 -29.613281 53.445312 -25.695312 51.5 -22 C 49.5625 -18.300781 46.960938 -15.101562 43.703125 -12.40625 C 40.578125 -9.832031 36.945312 -7.953125 32.8125 -6.765625 C 28.675781 -5.578125 24.632812 -5.609375 20.6875 -6.859375 C 18.050781 -7.671875 15.757812 -9.015625 13.8125 -10.890625 C 11.875 -12.773438 10.242188 -14.925781 8.921875 -17.34375 C 7.609375 -19.757812 6.640625 -22.21875 6.015625 -24.71875 C 5.265625 -27.476562 4.828125 -30.660156 4.703125 -34.265625 C 4.578125 -37.867188 4.828125 -41.550781 5.453125 -45.3125 C 6.078125 -49.070312 7.109375 -52.578125 8.546875 -55.828125 C 9.992188 -59.085938 11.9375 -61.785156 14.375 -63.921875 C 16.882812 -66.492188 19.894531 -68.3125 23.40625 -69.375 C 26.914062 -70.4375 30.519531 -70.796875 34.21875 -70.453125 C 37.914062 -70.109375 41.359375 -69.039062 44.546875 -67.25 C 47.742188 -65.46875 50.316406 -63.007812 52.265625 -59.875 Z M 35.15625 -23.3125 C 37.289062 -25.3125 38.875 -27.644531 39.90625 -30.3125 C 40.9375 -32.976562 41.578125 -35.765625 41.828125 -38.671875 C 42.078125 -41.585938 42.015625 -44.425781 41.640625 -47.1875 C 41.265625 -49.945312 40.179688 -52.203125 38.390625 -53.953125 C 36.609375 -55.710938 34.242188 -56.5625 31.296875 -56.5 C 29.671875 -56.5 28.085938 -56.085938 26.546875 -55.265625 C 25.015625 -54.453125 23.75 -53.390625 22.75 -52.078125 C 21.625 -50.503906 20.804688 -48.617188 20.296875 -46.421875 C 19.796875 -44.234375 19.421875 -42.203125 19.171875 -40.328125 C 18.609375 -36.128906 18.828125 -31.992188 19.828125 -27.921875 C 20.140625 -26.722656 20.5625 -25.53125 21.09375 -24.34375 C 21.632812 -23.15625 22.40625 -22.1875 23.40625 -21.4375 C 25.03125 -20.238281 26.890625 -19.8125 28.984375 -20.15625 C 31.085938 -20.507812 32.925781 -21.34375 34.5 -22.65625 C 34.6875 -22.84375 34.90625 -23.0625 35.15625 -23.3125 Z M 35.15625 -23.3125 "/></g></g></g><g fill="#b4647a" fill-opacity="1"><g transform="translate(254.246342, 266.215664)"><g><path d="M 57.8125 -51.515625 C 58.375 -48.691406 58.21875 -46.179688 57.34375 -43.984375 C 56.46875 -41.796875 55.070312 -39.867188 53.15625 -38.203125 C 51.25 -36.546875 49.039062 -35.125 46.53125 -33.9375 C 47.28125 -32.800781 47.859375 -31.5625 48.265625 -30.21875 C 48.671875 -28.875 48.875 -27.382812 48.875 -25.75 C 48.9375 -22.8125 48.328125 -20.070312 47.046875 -17.53125 C 45.765625 -14.988281 44.039062 -12.742188 41.875 -10.796875 C 39.71875 -8.859375 37.304688 -7.296875 34.640625 -6.109375 C 31.972656 -4.921875 29.296875 -4.171875 26.609375 -3.859375 C 22.722656 -3.359375 19.085938 -3.71875 15.703125 -4.9375 C 12.316406 -6.15625 9.601562 -8.160156 7.5625 -10.953125 C 5.53125 -13.742188 4.578125 -17.238281 4.703125 -21.4375 C 4.890625 -28.257812 5.578125 -35.164062 6.765625 -42.15625 C 7.953125 -49.144531 9.019531 -56.023438 9.96875 -62.796875 C 10.21875 -64.484375 11.15625 -65.796875 12.78125 -66.734375 C 14.414062 -67.679688 16.015625 -68.0625 17.578125 -67.875 C 17.828125 -68 18.046875 -68.125 18.234375 -68.25 C 20.929688 -69.1875 23.890625 -69.71875 27.109375 -69.84375 C 30.335938 -69.96875 33.597656 -69.671875 36.890625 -68.953125 C 40.179688 -68.234375 43.285156 -67.101562 46.203125 -65.5625 C 49.117188 -64.03125 51.609375 -62.085938 53.671875 -59.734375 C 55.742188 -57.390625 57.125 -54.648438 57.8125 -51.515625 Z M 33.84375 -55.171875 C 31.894531 -55.742188 30.054688 -56 28.328125 -55.9375 C 26.609375 -55.875 24.84375 -55.554688 23.03125 -54.984375 C 22.71875 -52.921875 22.4375 -50.882812 22.1875 -48.875 C 21.9375 -46.875 21.6875 -44.835938 21.4375 -42.765625 C 21.875 -42.890625 22.3125 -42.953125 22.75 -42.953125 C 23.125 -42.953125 23.625 -42.953125 24.25 -42.953125 C 26.257812 -42.953125 28.234375 -43.109375 30.171875 -43.421875 C 32.117188 -43.734375 34.0625 -44.238281 36 -44.9375 C 36.5 -45.125 37.375 -45.46875 38.625 -45.96875 C 39.882812 -46.46875 41.046875 -47 42.109375 -47.5625 C 43.171875 -48.125 43.734375 -48.625 43.796875 -49.0625 C 43.859375 -49.757812 43.453125 -50.4375 42.578125 -51.09375 C 41.703125 -51.75 40.648438 -52.375 39.421875 -52.96875 C 38.203125 -53.5625 37.0625 -54.0625 36 -54.46875 C 34.9375 -54.875 34.21875 -55.109375 33.84375 -55.171875 Z M 32.8125 -21.625 C 34.25 -23.1875 34.859375 -24.453125 34.640625 -25.421875 C 34.421875 -26.398438 33.710938 -27.125 32.515625 -27.59375 C 31.328125 -28.0625 29.945312 -28.390625 28.375 -28.578125 C 26.8125 -28.765625 25.40625 -28.859375 24.15625 -28.859375 C 23.59375 -28.859375 23.125 -28.859375 22.75 -28.859375 C 21.625 -28.859375 20.585938 -29.078125 19.640625 -29.515625 C 19.578125 -28.703125 19.5 -27.882812 19.40625 -27.0625 C 19.3125 -26.25 19.203125 -25.4375 19.078125 -24.625 C 19.015625 -23.75 18.890625 -22.648438 18.703125 -21.328125 C 18.515625 -20.015625 18.703125 -19.046875 19.265625 -18.421875 C 20.078125 -17.671875 21.125 -17.28125 22.40625 -17.25 C 23.695312 -17.21875 25.03125 -17.4375 26.40625 -17.90625 C 27.789062 -18.375 29.0625 -18.953125 30.21875 -19.640625 C 31.375 -20.335938 32.238281 -21 32.8125 -21.625 Z M 32.8125 -21.625 "/></g></g></g><g fill="#b4647a" fill-opacity="1"><g transform="translate(317.033429, 266.215664)"><g><path d="M 48.6875 -41.265625 C 48.875 -34.992188 49.03125 -28.722656 49.15625 -22.453125 C 49.28125 -16.191406 49.4375 -9.929688 49.625 -3.671875 C 49.6875 -1.847656 49.25 -0.390625 48.3125 0.703125 C 47.375 1.796875 46.210938 2.515625 44.828125 2.859375 C 43.453125 3.210938 42.0625 3.195312 40.65625 2.8125 C 39.25 2.4375 38.054688 1.71875 37.078125 0.65625 C 36.109375 -0.40625 35.59375 -1.847656 35.53125 -3.671875 C 35.46875 -5.546875 35.421875 -7.421875 35.390625 -9.296875 C 35.359375 -11.179688 35.3125 -13.066406 35.25 -14.953125 L 21.15625 -15.421875 C 20.644531 -13.097656 20.171875 -10.742188 19.734375 -8.359375 C 19.296875 -5.984375 18.859375 -3.601562 18.421875 -1.21875 C 18.109375 0.53125 17.398438 1.8125 16.296875 2.625 C 15.203125 3.445312 13.9375 3.859375 12.5 3.859375 C 11.0625 3.859375 9.695312 3.476562 8.40625 2.71875 C 7.125 1.96875 6.125 0.9375 5.40625 -0.375 C 4.6875 -1.6875 4.484375 -3.222656 4.796875 -4.984375 C 5.921875 -11.117188 7.1875 -17.191406 8.59375 -23.203125 C 10.007812 -29.222656 12 -35.085938 14.5625 -40.796875 C 15.820312 -43.617188 17.421875 -46.65625 19.359375 -49.90625 C 21.304688 -53.164062 23.515625 -56.160156 25.984375 -58.890625 C 28.460938 -61.617188 31.207031 -63.640625 34.21875 -64.953125 C 37.039062 -66.140625 39.328125 -66.359375 41.078125 -65.609375 C 42.828125 -64.859375 44.203125 -63.492188 45.203125 -61.515625 C 46.210938 -59.546875 46.953125 -57.304688 47.421875 -54.796875 C 47.890625 -52.296875 48.203125 -49.820312 48.359375 -47.375 C 48.515625 -44.925781 48.625 -42.890625 48.6875 -41.265625 Z M 25.5625 -30.921875 C 25.5 -30.671875 25.421875 -30.421875 25.328125 -30.171875 C 25.234375 -29.921875 25.125 -29.671875 25 -29.421875 C 26.695312 -29.359375 28.359375 -29.296875 29.984375 -29.234375 C 31.617188 -29.171875 33.25 -29.109375 34.875 -29.046875 C 34.8125 -31.046875 34.765625 -33.0625 34.734375 -35.09375 C 34.703125 -37.132812 34.65625 -39.191406 34.59375 -41.265625 C 34.53125 -42.078125 34.5 -42.9375 34.5 -43.84375 C 34.5 -44.757812 34.5 -45.6875 34.5 -46.625 C 33.4375 -45.375 32.523438 -44.148438 31.765625 -42.953125 C 30.515625 -41.078125 29.375 -39.132812 28.34375 -37.125 C 27.3125 -35.125 26.382812 -33.054688 25.5625 -30.921875 Z M 25.5625 -30.921875 "/></g></g></g><g fill="#b4647a" fill-opacity="1"><g transform="translate(371.361178, 266.215664)"><g/></g></g><g fill="#b4647a" fill-opacity="1"><g transform="translate(399.934972, 266.215664)"><g><path d="M 41.359375 -57.0625 C 41.609375 -58.875 42.265625 -60.1875 43.328125 -61 C 44.398438 -61.820312 45.640625 -62.21875 47.046875 -62.1875 C 48.453125 -62.15625 49.8125 -61.773438 51.125 -61.046875 C 52.445312 -60.328125 53.484375 -59.296875 54.234375 -57.953125 C 54.984375 -56.609375 55.234375 -55.054688 54.984375 -53.296875 C 52.421875 -36.003906 49.226562 -18.832031 45.40625 -1.78125 C 45.09375 -0.40625 44.382812 0.71875 43.28125 1.59375 C 42.1875 2.46875 40.914062 3.015625 39.46875 3.234375 C 38.03125 3.460938 36.671875 3.304688 35.390625 2.765625 C 34.109375 2.234375 33.15625 1.28125 32.53125 -0.09375 C 31.082031 -3.539062 29.601562 -6.972656 28.09375 -10.390625 C 26.59375 -13.804688 25.09375 -17.238281 23.59375 -20.6875 C 22.65625 -16.601562 21.742188 -12.507812 20.859375 -8.40625 C 19.984375 -4.300781 19.171875 -0.179688 18.421875 3.953125 C 18.109375 5.703125 17.382812 6.984375 16.25 7.796875 C 15.125 8.617188 13.859375 9.03125 12.453125 9.03125 C 11.046875 9.03125 9.695312 8.648438 8.40625 7.890625 C 7.125 7.140625 6.125 6.101562 5.40625 4.78125 C 4.6875 3.46875 4.515625 1.9375 4.890625 0.1875 C 7.648438 -14.726562 11.035156 -29.519531 15.046875 -44.1875 C 15.421875 -45.5625 16.171875 -46.6875 17.296875 -47.5625 C 18.421875 -48.4375 19.6875 -49 21.09375 -49.25 C 22.507812 -49.5 23.84375 -49.359375 25.09375 -48.828125 C 26.351562 -48.296875 27.296875 -47.3125 27.921875 -45.875 L 36.1875 -26.796875 C 37.1875 -31.804688 38.109375 -36.832031 38.953125 -41.875 C 39.804688 -46.914062 40.609375 -51.976562 41.359375 -57.0625 Z M 41.359375 -57.0625 "/></g></g></g><g fill="#b4647a" fill-opacity="1"><g transform="translate(459.714293, 266.215664)"><g><path d="M 39.203125 -19.921875 C 41.015625 -19.859375 42.46875 -19.34375 43.5625 -18.375 C 44.664062 -17.40625 45.390625 -16.210938 45.734375 -14.796875 C 46.078125 -13.390625 46.078125 -11.976562 45.734375 -10.5625 C 45.390625 -9.15625 44.664062 -8 43.5625 -7.09375 C 42.46875 -6.1875 41.015625 -5.796875 39.203125 -5.921875 C 34.941406 -6.046875 30.675781 -6.015625 26.40625 -5.828125 C 22.144531 -5.640625 17.882812 -5.203125 13.625 -4.515625 C 12.3125 -4.265625 10.929688 -4.375 9.484375 -4.84375 C 8.046875 -5.3125 6.84375 -6.078125 5.875 -7.140625 C 4.90625 -8.203125 4.546875 -9.582031 4.796875 -11.28125 C 5.859375 -19.988281 7.03125 -28.664062 8.3125 -37.3125 C 9.601562 -45.96875 11 -54.585938 12.5 -63.171875 C 12.6875 -64.234375 13.0625 -65.171875 13.625 -65.984375 C 14.125 -66.859375 14.84375 -67.578125 15.78125 -68.140625 C 16.726562 -68.710938 17.890625 -69.03125 19.265625 -69.09375 C 26.035156 -69.34375 32.804688 -69.21875 39.578125 -68.71875 C 41.390625 -68.59375 42.84375 -68.007812 43.9375 -66.96875 C 45.039062 -65.9375 45.765625 -64.710938 46.109375 -63.296875 C 46.453125 -61.890625 46.453125 -60.5 46.109375 -59.125 C 45.765625 -57.75 45.039062 -56.617188 43.9375 -55.734375 C 42.84375 -54.859375 41.390625 -54.484375 39.578125 -54.609375 C 34.941406 -54.921875 30.207031 -55.078125 25.375 -55.078125 C 25.0625 -53.265625 24.75 -51.445312 24.4375 -49.625 C 24.125 -47.8125 23.84375 -46 23.59375 -44.1875 C 26.164062 -44.125 28.640625 -43.992188 31.015625 -43.796875 C 32.898438 -43.546875 34.546875 -42.828125 35.953125 -41.640625 C 37.359375 -40.453125 38.0625 -38.820312 38.0625 -36.75 C 38.0625 -35.5625 37.734375 -34.398438 37.078125 -33.265625 C 36.421875 -32.140625 35.5625 -31.234375 34.5 -30.546875 C 33.4375 -29.859375 32.273438 -29.578125 31.015625 -29.703125 C 27.816406 -30.015625 24.625 -30.140625 21.4375 -30.078125 C 21.1875 -28.328125 20.929688 -26.554688 20.671875 -24.765625 C 20.421875 -22.984375 20.171875 -21.179688 19.921875 -19.359375 C 23.117188 -19.671875 26.316406 -19.890625 29.515625 -20.015625 C 32.710938 -20.140625 35.941406 -20.109375 39.203125 -19.921875 Z M 39.203125 -19.921875 "/></g></g></g><g fill="#b4647a" fill-opacity="1"><g transform="translate(510.752321, 266.215664)"><g><path d="M 40.421875 -60.625 C 41.171875 -62.257812 42.203125 -63.328125 43.515625 -63.828125 C 44.835938 -64.328125 46.1875 -64.390625 47.5625 -64.015625 C 48.9375 -63.640625 50.140625 -62.929688 51.171875 -61.890625 C 52.210938 -60.859375 52.90625 -59.609375 53.25 -58.140625 C 53.59375 -56.671875 53.359375 -55.148438 52.546875 -53.578125 C 48.222656 -44.929688 43.648438 -36.378906 38.828125 -27.921875 C 40.765625 -25.347656 42.71875 -22.789062 44.6875 -20.25 C 46.664062 -17.71875 48.691406 -15.195312 50.765625 -12.6875 C 51.890625 -11.3125 52.453125 -9.867188 52.453125 -8.359375 C 52.453125 -6.859375 52.078125 -5.476562 51.328125 -4.21875 C 50.578125 -2.96875 49.585938 -1.984375 48.359375 -1.265625 C 47.140625 -0.546875 45.851562 -0.265625 44.5 -0.421875 C 43.15625 -0.578125 41.921875 -1.34375 40.796875 -2.71875 C 37.472656 -6.726562 34.242188 -10.804688 31.109375 -14.953125 C 28.421875 -10.554688 25.695312 -6.257812 22.9375 -2.0625 C 21.9375 -0.5625 20.726562 0.40625 19.3125 0.84375 C 17.90625 1.28125 16.492188 1.296875 15.078125 0.890625 C 13.671875 0.484375 12.46875 -0.21875 11.46875 -1.21875 C 10.46875 -2.21875 9.84375 -3.40625 9.59375 -4.78125 C 9.34375 -6.164062 9.71875 -7.644531 10.71875 -9.21875 C 12.71875 -12.15625 14.65625 -15.128906 16.53125 -18.140625 C 18.414062 -21.148438 20.269531 -24.160156 22.09375 -27.171875 C 19.207031 -31.242188 16.398438 -35.363281 13.671875 -39.53125 C 10.953125 -43.695312 8.304688 -47.910156 5.734375 -52.171875 C 4.796875 -53.734375 4.46875 -55.21875 4.75 -56.625 C 5.03125 -58.039062 5.671875 -59.265625 6.671875 -60.296875 C 7.671875 -61.335938 8.875 -62.046875 10.28125 -62.421875 C 11.695312 -62.796875 13.09375 -62.765625 14.46875 -62.328125 C 15.851562 -61.890625 17.015625 -60.882812 17.953125 -59.3125 C 21.710938 -52.976562 25.660156 -46.773438 29.796875 -40.703125 C 33.492188 -47.285156 37.035156 -53.925781 40.421875 -60.625 Z M 40.421875 -60.625 "/></g></g></g><g fill="#b4647a" fill-opacity="1"><g transform="translate(568.83981, 266.215664)"><g><path d="M 54.984375 -53.484375 C 55.359375 -50.097656 55.390625 -46.414062 55.078125 -42.4375 C 54.765625 -38.457031 54.046875 -34.476562 52.921875 -30.5 C 51.796875 -26.519531 50.210938 -22.820312 48.171875 -19.40625 C 46.140625 -15.988281 43.632812 -13.101562 40.65625 -10.75 C 37.675781 -8.40625 34.210938 -6.890625 30.265625 -6.203125 C 26.128906 -5.515625 22.601562 -5.84375 19.6875 -7.1875 C 16.78125 -8.539062 14.367188 -10.578125 12.453125 -13.296875 C 10.546875 -16.023438 9.023438 -19.191406 7.890625 -22.796875 C 6.765625 -26.398438 5.96875 -30.128906 5.5 -33.984375 C 5.03125 -37.835938 4.78125 -41.550781 4.75 -45.125 C 4.71875 -48.695312 4.796875 -51.796875 4.984375 -54.421875 C 5.109375 -56.242188 5.6875 -57.6875 6.71875 -58.75 C 7.75 -59.8125 8.96875 -60.53125 10.375 -60.90625 C 11.789062 -61.28125 13.1875 -61.28125 14.5625 -60.90625 C 15.945312 -60.53125 17.078125 -59.8125 17.953125 -58.75 C 18.828125 -57.6875 19.203125 -56.242188 19.078125 -54.421875 C 19.015625 -53.484375 18.953125 -51.898438 18.890625 -49.671875 C 18.828125 -47.453125 18.859375 -44.898438 18.984375 -42.015625 C 19.109375 -39.128906 19.375 -36.242188 19.78125 -33.359375 C 20.1875 -30.484375 20.78125 -27.914062 21.5625 -25.65625 C 22.351562 -23.40625 23.40625 -21.789062 24.71875 -20.8125 C 26.039062 -19.84375 27.703125 -19.832031 29.703125 -20.78125 C 32.460938 -22.03125 34.65625 -23.953125 36.28125 -26.546875 C 37.914062 -29.148438 39.109375 -32.050781 39.859375 -35.25 C 40.609375 -38.445312 41.046875 -41.640625 41.171875 -44.828125 C 41.296875 -48.023438 41.203125 -50.910156 40.890625 -53.484375 C 40.640625 -55.304688 40.921875 -56.75 41.734375 -57.8125 C 42.546875 -58.875 43.625 -59.578125 44.96875 -59.921875 C 46.320312 -60.265625 47.71875 -60.265625 49.15625 -59.921875 C 50.601562 -59.578125 51.875 -58.859375 52.96875 -57.765625 C 54.0625 -56.671875 54.734375 -55.242188 54.984375 -53.484375 Z M 54.984375 -53.484375 "/></g></g></g><g fill="#b4647a" fill-opacity="1"><g transform="translate(628.807146, 266.215664)"><g><path d="M 35.0625 -40.796875 C 38.570312 -38.410156 41.34375 -35.289062 43.375 -31.4375 C 45.414062 -27.582031 46.21875 -23.523438 45.78125 -19.265625 C 45.34375 -15.503906 44.054688 -12.257812 41.921875 -9.53125 C 39.796875 -6.8125 37.179688 -4.710938 34.078125 -3.234375 C 30.972656 -1.765625 27.679688 -0.953125 24.203125 -0.796875 C 20.722656 -0.640625 17.382812 -1.21875 14.1875 -2.53125 C 11 -3.851562 8.304688 -5.957031 6.109375 -8.84375 C 4.984375 -10.34375 4.515625 -11.75 4.703125 -13.0625 C 4.890625 -14.382812 5.46875 -15.546875 6.4375 -16.546875 C 7.40625 -17.546875 8.609375 -18.25 10.046875 -18.65625 C 11.492188 -19.0625 12.953125 -19.078125 14.421875 -18.703125 C 15.898438 -18.328125 17.171875 -17.421875 18.234375 -15.984375 C 18.734375 -15.296875 19.671875 -14.898438 21.046875 -14.796875 C 22.429688 -14.703125 23.8125 -14.765625 25.1875 -14.984375 C 26.570312 -15.210938 27.546875 -15.453125 28.109375 -15.703125 C 29.421875 -16.328125 30.40625 -17.25 31.0625 -18.46875 C 31.71875 -19.6875 31.953125 -21.019531 31.765625 -22.46875 C 31.578125 -24.21875 30.953125 -25.671875 29.890625 -26.828125 C 28.828125 -27.992188 27.554688 -28.984375 26.078125 -29.796875 C 24.609375 -30.609375 23.117188 -31.40625 21.609375 -32.1875 C 20.109375 -32.976562 18.796875 -33.84375 17.671875 -34.78125 C 14.535156 -37.539062 12.625 -40.546875 11.9375 -43.796875 C 11.25 -47.054688 11.484375 -50.285156 12.640625 -53.484375 C 13.796875 -56.679688 15.597656 -59.59375 18.046875 -62.21875 C 20.492188 -64.851562 23.28125 -66.925781 26.40625 -68.4375 C 28.101562 -69.1875 29.671875 -69.390625 31.109375 -69.046875 C 32.554688 -68.703125 33.796875 -67.992188 34.828125 -66.921875 C 35.859375 -65.859375 36.5625 -64.632812 36.9375 -63.25 C 37.3125 -61.875 37.25 -60.5625 36.75 -59.3125 C 36.25 -58.0625 35.1875 -57.03125 33.5625 -56.21875 C 32.488281 -55.707031 31.25 -55.015625 29.84375 -54.140625 C 28.4375 -53.265625 27.273438 -52.210938 26.359375 -50.984375 C 25.453125 -49.765625 25.28125 -48.40625 25.84375 -46.90625 C 26.15625 -45.90625 26.890625 -45.039062 28.046875 -44.3125 C 29.210938 -43.59375 30.453125 -42.953125 31.765625 -42.390625 C 33.085938 -41.828125 34.1875 -41.296875 35.0625 -40.796875 Z M 35.0625 -40.796875 "/></g></g></g><g fill="#6b514f" fill-opacity="1"><g transform="translate(49.308261, 364.717473)"><g><path d="M 44.53125 23.03125 C 42.625 21.300781 40.835938 19.484375 39.171875 17.578125 C 37.515625 15.671875 35.960938 13.632812 34.515625 11.46875 C 31.546875 7.195312 29.046875 2.703125 27.015625 -2.015625 L 27.640625 -3.828125 L 29.40625 -4.40625 L 30.1875 -3.921875 L 32.828125 3.828125 C 34.992188 7.378906 37.367188 10.757812 39.953125 13.96875 C 42.523438 17.175781 45.769531 20.007812 49.6875 22.46875 L 53.3125 22.546875 C 53.820312 22.265625 54.257812 22.207031 54.625 22.375 C 55.070312 22.507812 55.441406 22.671875 55.734375 22.859375 L 55.890625 24.65625 L 53.609375 26.234375 C 52.785156 26.160156 51.984375 26.03125 51.203125 25.84375 C 50.421875 25.664062 49.628906 25.460938 48.828125 25.234375 C 47.234375 24.828125 45.800781 24.09375 44.53125 23.03125 Z M 48.0625 -0.296875 C 47.9375 -0.710938 47.863281 -1.09375 47.84375 -1.4375 C 47.832031 -1.78125 47.929688 -2.117188 48.140625 -2.453125 C 48.347656 -2.785156 48.539062 -3.09375 48.71875 -3.375 C 48.894531 -3.664062 49.078125 -3.957031 49.265625 -4.25 L 53.46875 -6.203125 L 59.171875 -7.796875 L 61.34375 -9.84375 C 60.863281 -10.875 60.296875 -11.875 59.640625 -12.84375 C 58.984375 -13.8125 58.285156 -14.765625 57.546875 -15.703125 C 55.898438 -17.535156 54.097656 -19.066406 52.140625 -20.296875 L 52.546875 -20.953125 C 51.617188 -22.128906 50.460938 -23.253906 49.078125 -24.328125 C 48.335938 -24.835938 47.695312 -25.378906 47.15625 -25.953125 C 46.625 -26.523438 46.117188 -27.128906 45.640625 -27.765625 L 46.625 -29.34375 C 47.28125 -29.851562 47.828125 -29.972656 48.265625 -29.703125 C 48.453125 -29.585938 48.664062 -29.453125 48.90625 -29.296875 C 49.144531 -29.148438 49.40625 -28.988281 49.6875 -28.8125 C 51.039062 -27.226562 52.375 -25.679688 53.6875 -24.171875 C 55 -22.660156 56.300781 -21.128906 57.59375 -19.578125 C 58.925781 -18.003906 60.238281 -16.445312 61.53125 -14.90625 C 62.832031 -13.363281 64.140625 -11.84375 65.453125 -10.34375 L 64 -7.390625 L 61.265625 -5.703125 C 60.484375 -5.316406 59.695312 -4.96875 58.90625 -4.65625 C 58.125 -4.351562 57.328125 -4.09375 56.515625 -3.875 C 54.921875 -3.34375 53.441406 -2.476562 52.078125 -1.28125 L 51.625 0.25 L 49.9375 0.875 Z M 48.0625 -0.296875 "/></g></g></g><g fill="#6b514f" fill-opacity="1"><g transform="translate(126.175942, 412.267982)"><g><path d="M 49.234375 13.375 C 47.316406 10.6875 45.238281 8.425781 43 6.59375 C 41.851562 5.644531 40.800781 4.578125 39.84375 3.390625 C 38.894531 2.203125 38.007812 0.960938 37.1875 -0.328125 L 35.421875 -4.921875 C 35.441406 -5.585938 35.457031 -6.234375 35.46875 -6.859375 C 35.476562 -7.484375 35.507812 -8.125 35.5625 -8.78125 C 35.664062 -9.9375 36.113281 -11.148438 36.90625 -12.421875 C 37.9375 -13.484375 39.046875 -14.457031 40.234375 -15.34375 C 41.429688 -16.226562 42.675781 -17.085938 43.96875 -17.921875 C 46.53125 -19.335938 48.914062 -21.097656 51.125 -23.203125 L 42.796875 -40.4375 L 43.453125 -42.09375 L 45.421875 -42.484375 C 46.003906 -40.867188 46.625 -39.25 47.28125 -37.625 C 47.945312 -36.007812 48.664062 -34.390625 49.4375 -32.765625 C 51.113281 -29.492188 52.898438 -26.488281 54.796875 -23.75 C 56.148438 -24.257812 57.515625 -24.757812 58.890625 -25.25 C 60.265625 -25.738281 61.625 -26.234375 62.96875 -26.734375 C 64.363281 -27.222656 65.75 -27.523438 67.125 -27.640625 C 68.507812 -27.765625 69.882812 -27.648438 71.25 -27.296875 L 71.078125 -24.734375 C 70.210938 -24.828125 69.363281 -24.851562 68.53125 -24.8125 C 67.695312 -24.78125 66.863281 -24.722656 66.03125 -24.640625 C 65.175781 -24.472656 64.320312 -24.296875 63.46875 -24.109375 C 62.613281 -23.929688 61.765625 -23.769531 60.921875 -23.625 L 60.6875 -23 C 59.3125 -22.445312 57.953125 -21.859375 56.609375 -21.234375 C 55.273438 -20.609375 53.90625 -19.957031 52.5 -19.28125 C 51.144531 -18.613281 49.796875 -17.921875 48.453125 -17.203125 C 47.117188 -16.484375 45.78125 -15.71875 44.4375 -14.90625 C 43.863281 -14.53125 43.285156 -14.109375 42.703125 -13.640625 C 42.128906 -13.179688 41.550781 -12.726562 40.96875 -12.28125 C 39.8125 -11.21875 39.050781 -9.90625 38.6875 -8.34375 L 39.28125 -3.859375 L 42.21875 1.65625 L 51.15625 9.421875 L 52.21875 9.46875 L 54.21875 11.34375 L 53.859375 13.1875 Z M 49.234375 13.375 "/></g></g></g><g fill="#6b514f" fill-opacity="1"><g transform="translate(210.533148, 444.72649)"><g><path d="M 18.90625 -11.65625 C 18.726562 -11.976562 18.582031 -12.28125 18.46875 -12.5625 C 18.351562 -12.84375 18.265625 -13.132812 18.203125 -13.4375 C 18.046875 -14.132812 18.03125 -14.816406 18.15625 -15.484375 C 19.257812 -17.691406 20.375 -19.953125 21.5 -22.265625 C 22.625 -24.578125 23.726562 -26.921875 24.8125 -29.296875 C 25.882812 -31.617188 27.019531 -33.925781 28.21875 -36.21875 C 29.425781 -38.519531 30.695312 -40.773438 32.03125 -42.984375 L 34.671875 -42.84375 L 34.484375 -39.953125 C 31.679688 -36.410156 29.3125 -32.523438 27.375 -28.296875 C 25.507812 -24.234375 23.441406 -20.117188 21.171875 -15.953125 L 21.125 -11.671875 Z M 44.890625 -7.1875 C 43.828125 -8.238281 43.21875 -9.554688 43.0625 -11.140625 C 42.96875 -11.847656 42.890625 -12.578125 42.828125 -13.328125 C 42.765625 -14.085938 42.742188 -14.835938 42.765625 -15.578125 L 46.46875 -19.703125 C 47.007812 -20.054688 47.628906 -20.3125 48.328125 -20.46875 C 48.640625 -20.519531 48.957031 -20.570312 49.28125 -20.625 C 49.601562 -20.6875 49.945312 -20.742188 50.3125 -20.796875 L 51.65625 -23.890625 C 51.46875 -25.585938 51.695312 -27.378906 52.34375 -29.265625 C 52.894531 -31.054688 52.84375 -32.789062 52.1875 -34.46875 L 47.75 -35.984375 L 46.59375 -35.84375 L 44.640625 -37.25 L 44.59375 -38.46875 L 45.453125 -39.765625 L 46.65625 -39.796875 L 52.515625 -38.015625 L 53.796875 -40.6875 L 56.203125 -40.671875 L 55.875 -36.6875 L 66.125 -33.96875 L 67.203125 -34.203125 L 68.53125 -33.515625 L 71.53125 -33.390625 L 72.640625 -30.171875 C 72.285156 -29.546875 71.832031 -29.285156 71.28125 -29.390625 C 71.007812 -29.441406 70.707031 -29.5 70.375 -29.5625 C 70.039062 -29.625 69.707031 -29.6875 69.375 -29.75 C 67.78125 -30.738281 65.992188 -31.300781 64.015625 -31.4375 C 61.921875 -31.601562 60.085938 -32.066406 58.515625 -32.828125 L 56.296875 -32.484375 L 54.21875 -25.5625 L 54.421875 -20.703125 C 55.859375 -20.203125 57.253906 -19.578125 58.609375 -18.828125 C 59.960938 -18.078125 61.265625 -17.210938 62.515625 -16.234375 C 63.835938 -15.296875 65.125 -14.363281 66.375 -13.4375 C 67.632812 -12.519531 68.90625 -11.628906 70.1875 -10.765625 L 70.28125 -9.015625 L 68.359375 -7.484375 L 67.015625 -7.734375 L 66.078125 -8.609375 L 65.265625 -10.296875 C 64.515625 -10.898438 63.765625 -11.5 63.015625 -12.09375 C 62.273438 -12.695312 61.554688 -13.289062 60.859375 -13.875 C 60.066406 -14.488281 59.253906 -15.019531 58.421875 -15.46875 C 57.585938 -15.914062 56.703125 -16.25 55.765625 -16.46875 L 53.21875 -16.1875 C 52.945312 -15.382812 52.664062 -14.59375 52.375 -13.8125 C 52.09375 -13.03125 51.816406 -12.238281 51.546875 -11.4375 C 51.273438 -10.625 50.914062 -9.859375 50.46875 -9.140625 C 50.019531 -8.421875 49.503906 -7.742188 48.921875 -7.109375 C 48.285156 -6.773438 47.632812 -6.671875 46.96875 -6.796875 C 46.582031 -6.867188 46.238281 -6.929688 45.9375 -6.984375 C 45.632812 -7.046875 45.285156 -7.113281 44.890625 -7.1875 Z M 47.75 -10.9375 L 49.453125 -13.984375 L 49.125 -15.921875 L 47.96875 -16.140625 C 47.320312 -15.804688 46.71875 -15.347656 46.15625 -14.765625 C 45.613281 -14.359375 45.382812 -13.601562 45.46875 -12.5 L 47.375 -10.75 Z M 70.1875 -38.703125 L 68.546875 -41.265625 L 68.109375 -46.765625 L 68.984375 -47.8125 L 70.15625 -47.59375 L 72.15625 -39.03125 Z M 76.609375 -41.125 C 76.316406 -41.976562 76.144531 -42.894531 76.09375 -43.875 C 76 -44.9375 76.03125 -45.878906 76.1875 -46.703125 L 77.828125 -47.609375 L 80.265625 -42.75 L 80.046875 -41.578125 Z M 76.609375 -41.125 "/></g></g></g><g fill="#6b514f" fill-opacity="1"><g transform="translate(299.729571, 460.965234)"><g><path d="M 46.328125 2.28125 C 44.753906 0.25 43.429688 -1.863281 42.359375 -4.0625 C 41.285156 -6.257812 40.46875 -8.539062 39.90625 -10.90625 C 39.28125 -13.269531 38.546875 -15.566406 37.703125 -17.796875 C 36.859375 -20.023438 35.875 -22.207031 34.75 -24.34375 L 32.296875 -25.78125 C 31.109375 -24.207031 29.960938 -22.628906 28.859375 -21.046875 C 27.765625 -19.472656 26.738281 -17.894531 25.78125 -16.3125 C 23.863281 -13.269531 22.65625 -9.804688 22.15625 -5.921875 L 19.609375 -5.921875 C 19.160156 -6.253906 18.910156 -6.675781 18.859375 -7.1875 C 18.679688 -7.800781 18.59375 -8.335938 18.59375 -8.796875 C 19.550781 -10.765625 20.566406 -12.707031 21.640625 -14.625 C 22.710938 -16.539062 23.84375 -18.457031 25.03125 -20.375 C 26.207031 -22.34375 27.414062 -24.257812 28.65625 -26.125 C 29.894531 -27.988281 31.109375 -29.789062 32.296875 -31.53125 L 35.171875 -35.171875 C 33.484375 -36.179688 31.734375 -36.859375 29.921875 -37.203125 C 29.023438 -37.367188 28.15625 -37.550781 27.3125 -37.75 C 26.46875 -37.945312 25.59375 -38.160156 24.6875 -38.390625 L 23.25 -38.046875 L 19.953125 -38.390625 L 18.171875 -38.046875 L 17.84375 -39.90625 L 20.375 -41.34375 C 23.695312 -41.34375 26.878906 -41.003906 29.921875 -40.328125 C 31.503906 -39.929688 33.023438 -39.507812 34.484375 -39.0625 C 35.953125 -38.613281 37.394531 -38.160156 38.8125 -37.703125 L 39.140625 -35.59375 L 37.28125 -31.53125 C 38.632812 -31.082031 39.988281 -30.617188 41.34375 -30.140625 C 42.695312 -29.660156 44.078125 -29.195312 45.484375 -28.75 C 48.191406 -27.726562 51.238281 -27.472656 54.625 -27.984375 C 55.125 -27.472656 55.429688 -26.9375 55.546875 -26.375 C 55.597656 -26.09375 55.640625 -25.78125 55.671875 -25.4375 C 55.703125 -25.101562 55.71875 -24.738281 55.71875 -24.34375 L 52.421875 -23.59375 C 51.234375 -24.039062 50.035156 -24.472656 48.828125 -24.890625 C 47.617188 -25.316406 46.363281 -25.703125 45.0625 -26.046875 C 43.820312 -26.328125 42.550781 -26.59375 41.25 -26.84375 C 39.957031 -27.09375 38.632812 -27.332031 37.28125 -27.5625 L 37.28125 -26.546875 C 38.238281 -24.296875 39.15625 -21.972656 40.03125 -19.578125 C 40.90625 -17.179688 41.707031 -14.769531 42.4375 -12.34375 C 43.90625 -7.269531 46.050781 -2.617188 48.875 1.609375 Z M 35.515625 -47.765625 L 29.421875 -52.921875 L 23.25 -56.484375 L 22.578125 -58.25 L 24.6875 -59.359375 L 36.953125 -50.8125 L 37.625 -48.1875 Z M 35.515625 -47.765625 "/></g></g></g><g fill="#6b514f" fill-opacity="1"><g transform="translate(389.83348, 460.420022)"><g><path d="M 27.390625 -12.5625 C 27.160156 -12.644531 26.921875 -12.726562 26.671875 -12.8125 C 26.421875 -12.90625 26.175781 -12.988281 25.9375 -13.0625 C 25.382812 -13.25 25.128906 -13.664062 25.171875 -14.3125 L 27.171875 -17.34375 L 31.46875 -22.46875 L 34.953125 -30.859375 L 35.625 -30.984375 C 36.46875 -33.210938 37.234375 -35.4375 37.921875 -37.65625 C 38.617188 -39.882812 39.304688 -42.09375 39.984375 -44.28125 C 41.273438 -48.707031 41.78125 -53.1875 41.5 -57.71875 C 38.945312 -58.21875 36.441406 -58.4375 33.984375 -58.375 C 32.734375 -58.257812 31.441406 -58.085938 30.109375 -57.859375 C 28.773438 -57.640625 27.394531 -57.34375 25.96875 -56.96875 L 21.390625 -52.125 L 21.203125 -51.328125 L 17.15625 -45.390625 L 15.734375 -45.125 L 14.453125 -47.8125 L 19.0625 -53.0625 C 19.382812 -53.757812 19.769531 -54.445312 20.21875 -55.125 C 20.664062 -55.8125 21.164062 -56.472656 21.71875 -57.109375 C 22.28125 -57.785156 22.847656 -58.4375 23.421875 -59.0625 C 23.992188 -59.6875 24.597656 -60.289062 25.234375 -60.875 L 27.671875 -61.671875 C 29.023438 -61.460938 30.425781 -61.304688 31.875 -61.203125 C 33.332031 -61.109375 34.804688 -61.085938 36.296875 -61.140625 C 37.765625 -61.191406 39.160156 -61.128906 40.484375 -60.953125 C 41.816406 -60.773438 43.117188 -60.515625 44.390625 -60.171875 L 46 -57.125 C 45.3125 -54.070312 44.535156 -51.046875 43.671875 -48.046875 C 42.804688 -45.046875 41.898438 -42.078125 40.953125 -39.140625 C 39.898438 -36.242188 38.800781 -33.328125 37.65625 -30.390625 C 36.519531 -27.453125 35.3125 -24.507812 34.03125 -21.5625 L 28.421875 -13.125 Z M 27.390625 -12.5625 "/></g></g></g><g fill="#6b514f" fill-opacity="1"><g transform="translate(478.546784, 443.10973)"><g><path d="M 26.578125 -10.5 L 24.796875 -11.078125 L 23.90625 -13.375 C 24.632812 -14.925781 25.289062 -16.492188 25.875 -18.078125 C 26.457031 -19.671875 27.003906 -21.289062 27.515625 -22.9375 C 28.085938 -24.5625 28.5625 -26.171875 28.9375 -27.765625 C 29.3125 -29.367188 29.609375 -30.972656 29.828125 -32.578125 L 28.6875 -40.3125 L 27.90625 -41.625 L 23.46875 -55.78125 C 21.769531 -55.78125 19.945312 -55.546875 18 -55.078125 C 17.070312 -54.835938 16.140625 -54.597656 15.203125 -54.359375 C 14.265625 -54.117188 13.332031 -53.875 12.40625 -53.625 C 12.28125 -52.414062 12.269531 -51.210938 12.375 -50.015625 C 12.476562 -48.816406 12.648438 -47.597656 12.890625 -46.359375 C 13.347656 -43.816406 14.0625 -41.3125 15.03125 -38.84375 C 15.75 -38.519531 16.378906 -38.132812 16.921875 -37.6875 C 17.515625 -37.125 17.8125 -36.453125 17.8125 -35.671875 L 16.265625 -34.703125 L 13.828125 -35.203125 L 12.640625 -37.078125 L 12.625 -38.265625 L 11.390625 -40.234375 L 10.015625 -47.6875 L 9.40625 -48.546875 L 9.109375 -51.15625 C 7.753906 -51.21875 6.507812 -51.066406 5.375 -50.703125 C 4.3125 -50.328125 3.125 -50.035156 1.8125 -49.828125 L -3.609375 -46.984375 C -4.179688 -47.054688 -4.554688 -47.242188 -4.734375 -47.546875 C -5.003906 -47.796875 -5.234375 -48.160156 -5.421875 -48.640625 C -4.648438 -50.203125 -3.3125 -51.238281 -1.40625 -51.75 C -0.40625 -52.019531 0.554688 -52.320312 1.484375 -52.65625 C 2.410156 -52.988281 3.273438 -53.375 4.078125 -53.8125 L 7.265625 -54.703125 L 6.84375 -57.609375 L 5.40625 -60.609375 L 5.546875 -62.09375 L 6.734375 -63.015625 L 7.515625 -62.859375 C 7.859375 -62.265625 8.195312 -61.660156 8.53125 -61.046875 C 8.875 -60.429688 9.179688 -59.785156 9.453125 -59.109375 C 9.941406 -57.847656 10.84375 -56.863281 12.15625 -56.15625 C 14.0625 -57.144531 15.972656 -57.742188 17.890625 -57.953125 C 18.828125 -58.023438 19.75 -58.144531 20.65625 -58.3125 C 21.5625 -58.476562 22.457031 -58.734375 23.34375 -59.078125 L 20.234375 -72.125 L 22.359375 -73.421875 L 23.671875 -71.9375 C 23.492188 -69.914062 23.757812 -67.988281 24.46875 -66.15625 C 24.863281 -65.15625 25.226562 -64.144531 25.5625 -63.125 C 25.90625 -62.113281 26.234375 -61.054688 26.546875 -59.953125 C 28.066406 -59.773438 29.609375 -59.929688 31.171875 -60.421875 C 31.929688 -60.660156 32.679688 -60.910156 33.421875 -61.171875 C 34.171875 -61.429688 34.910156 -61.703125 35.640625 -61.984375 L 39.625 -63.90625 L 41.359375 -63.421875 L 41.25 -60.640625 L 39.734375 -59.703125 L 34.125 -58.234375 L 33.21875 -57.5 C 32.226562 -57.71875 31.351562 -57.707031 30.59375 -57.46875 C 30.101562 -57.34375 29.628906 -57.203125 29.171875 -57.046875 C 28.722656 -56.898438 28.285156 -56.742188 27.859375 -56.578125 C 28.203125 -53.691406 28.679688 -50.765625 29.296875 -47.796875 C 29.921875 -44.835938 30.707031 -41.90625 31.65625 -39 C 33.414062 -33.15625 33 -27.273438 30.40625 -21.359375 L 27.84375 -14.90625 L 27.671875 -11.375 Z M 26.578125 -10.5 "/></g></g></g><g fill="#6b514f" fill-opacity="1"><g transform="translate(562.506187, 409.635842)"><g><path d="M 15.859375 -18.140625 L 14.15625 -18.34375 L 13.578125 -19.28125 L 13.1875 -21.9375 C 13.613281 -23.070312 13.941406 -24.222656 14.171875 -25.390625 C 14.398438 -26.554688 14.503906 -27.738281 14.484375 -28.9375 C 14.453125 -31.4375 14.65625 -33.925781 15.09375 -36.40625 C 14.800781 -37.820312 14.707031 -39.460938 14.8125 -41.328125 C 14.894531 -42.242188 14.945312 -43.101562 14.96875 -43.90625 C 14.988281 -44.71875 14.953125 -45.523438 14.859375 -46.328125 L 15.4375 -46.6875 L 15.03125 -47.34375 L 15.671875 -47.75 C 15.660156 -49.144531 15.6875 -50.554688 15.75 -51.984375 C 15.820312 -53.421875 15.9375 -54.851562 16.09375 -56.28125 C 16.363281 -59.039062 16.363281 -61.804688 16.09375 -64.578125 L 11.03125 -63.890625 L 9.671875 -62.546875 C 8.078125 -62.222656 6.5 -61.769531 4.9375 -61.1875 C 3.375 -60.601562 1.8125 -59.914062 0.25 -59.125 C -1.320312 -58.34375 -2.882812 -57.578125 -4.4375 -56.828125 C -6 -56.085938 -7.554688 -55.367188 -9.109375 -54.671875 L -10.328125 -56.109375 L -8.859375 -58.21875 C -6.566406 -59.25 -4.304688 -60.265625 -2.078125 -61.265625 C 0.148438 -62.265625 2.394531 -63.238281 4.65625 -64.1875 C 6.976562 -65.164062 9.296875 -65.984375 11.609375 -66.640625 C 13.921875 -67.304688 16.285156 -67.726562 18.703125 -67.90625 L 20.5 -66.453125 L 19.546875 -59.0625 C 19.472656 -58.132812 19.351562 -57.191406 19.1875 -56.234375 C 19.019531 -55.273438 18.859375 -54.28125 18.703125 -53.25 C 18.609375 -52.25 18.550781 -51.28125 18.53125 -50.34375 C 18.519531 -49.40625 18.609375 -48.460938 18.796875 -47.515625 L 36.53125 -44.25 L 39.734375 -44.5625 L 41.703125 -42.8125 L 40.1875 -40.953125 L 32.109375 -42.390625 L 17.828125 -43.5 C 17.859375 -41.53125 17.8125 -39.554688 17.6875 -37.578125 C 17.570312 -35.609375 17.445312 -33.613281 17.3125 -31.59375 C 17.144531 -29.632812 17.019531 -27.628906 16.9375 -25.578125 C 16.851562 -23.535156 16.804688 -21.519531 16.796875 -19.53125 Z M 15.859375 -18.140625 "/></g></g></g></svg>